/* XPM */
static char *arbre_herbe1646217147[] = {
/* columns rows colors chars-per-pixel */
"30 30 221 2 ",
"   c #321F33",
".  c #332B27",
"X  c #322B3A",
"o  c #2D313C",
"O  c #363238",
"+  c #6F341B",
"@  c #1C5400",
"#  c #245B00",
"$  c #2C6305",
"%  c #34670B",
"&  c #356B15",
"*  c #3B7314",
"=  c #3B771C",
"-  c #374835",
";  c #397827",
":  c #337031",
">  c #435906",
",  c #457A1A",
"<  c #527C19",
"1  c #747F19",
"2  c #4D5231",
"3  c #455B3D",
"4  c #754A2A",
"5  c #447A21",
"6  c #497D23",
"7  c #577821",
"8  c #4E6E3A",
"9  c #427C3A",
"0  c #62793A",
"q  c #747730",
"w  c #3D3340",
"e  c #2A4A46",
"r  c #354545",
"t  c #2D5746",
"y  c #2F5D56",
"u  c #335B55",
"i  c #1F6653",
"p  c #24644D",
"a  c #276949",
"s  c #356949",
"d  c #29764B",
"f  c #37784E",
"g  c #296855",
"h  c #306E52",
"j  c #2B7153",
"k  c #367454",
"l  c #366360",
"z  c #484A44",
"x  c #4B574C",
"c  c #4B5751",
"v  c #52515B",
"b  c #477A44",
"n  c #45745A",
"m  c #517550",
"M  c #716A59",
"N  c #4E5E66",
"B  c #4A6A66",
"V  c #5A6564",
"C  c #536B6E",
"Z  c #57726E",
"A  c #64776C",
"S  c #687A78",
"D  c #71777E",
"F  c #834D34",
"G  c #935739",
"H  c #91693A",
"J  c #887B4A",
"K  c #957944",
"L  c #AE6D4C",
"P  c #379019",
"I  c #38A218",
"U  c #398624",
"Y  c #378826",
"T  c #389625",
"R  c #31893A",
"E  c #3E9C35",
"W  c #39953C",
"Q  c #3AA126",
"!  c #3CA22B",
"~  c #3FA738",
"^  c #51871A",
"/  c #72841D",
"(  c #4B8324",
")  c #4D842A",
"_  c #4D8A28",
"`  c #578929",
"'  c #538A2C",
"]  c #4E962D",
"[  c #548636",
"{  c #558D33",
"}  c #598E33",
"|  c #598F3B",
" . c #429A38",
".. c #5B9334",
"X. c #5C943A",
"o. c #6C892A",
"O. c #78972C",
"+. c #659B37",
"@. c #62943C",
"#. c #649B3C",
"$. c #76983E",
"%. c #42A43A",
"&. c #42A938",
"*. c #53A936",
"=. c #63A239",
"-. c #74A237",
";. c #348A48",
":. c #3C9746",
">. c #328953",
",. c #3B9759",
"<. c #4C884B",
"1. c #489647",
"2. c #5F9E43",
"3. c #478359",
"4. c #56895B",
"5. c #539353",
"6. c #529C55",
"7. c #59935A",
"8. c #669D42",
"9. c #6A9D42",
"0. c #659A48",
"q. c #739D48",
"w. c #6C8E56",
"e. c #669253",
"r. c #43AB44",
"t. c #47AB47",
"y. c #46AC4A",
"u. c #4AB34F",
"i. c #55B445",
"p. c #46A65B",
"a. c #55A558",
"s. c #49B253",
"d. c #4CB55A",
"f. c #51B05F",
"g. c #54BD5B",
"h. c #6CA345",
"j. c #6DA549",
"k. c #71A649",
"l. c #73AA4C",
"z. c #7BAE4A",
"x. c #66B64D",
"c. c #7FB643",
"v. c #6DA751",
"b. c #76AD55",
"n. c #79AF53",
"m. c #7BB355",
"M. c #7EB559",
"N. c #5D8D62",
"B. c #489E62",
"V. c #5B9663",
"C. c #64866C",
"Z. c #648C6D",
"A. c #62956A",
"S. c #698775",
"D. c #699476",
"F. c #43A360",
"G. c #5AAB6A",
"H. c #4EB861",
"J. c #52B463",
"K. c #54BC64",
"L. c #5EA570",
"P. c #77A761",
"I. c #7EBD62",
"U. c #63A274",
"Y. c #5BC45D",
"T. c #5EC95D",
"R. c #65CC53",
"E. c #5CC664",
"W. c #61C567",
"Q. c #63CC65",
"!. c #71C36B",
"~. c #6BD364",
"^. c #6BD464",
"/. c #74DA62",
"(. c #86942D",
"). c #8FB13D",
"_. c #A3CE3E",
"`. c #889946",
"'. c #989F4D",
"]. c #A38252",
"[. c #B18659",
"{. c #86B548",
"}. c #9DB444",
"|. c #8FB057",
" X c #81B65B",
".X c #83BB5C",
"XX c #A9BD4A",
"oX c #A3B955",
"OX c #869F6E",
"+X c #88BA61",
"@X c #93B765",
"#X c #94AB79",
"$X c #9DB67E",
"%X c #C78863",
"&X c #88C25A",
"*X c #82D85D",
"=X c #95DF56",
"-X c #A8D04A",
";X c #BAD25D",
":X c #99E054",
">X c #A6E14C",
",X c #8BC264",
"<X c #87C369",
"1X c #8EC569",
"2X c #91C66A",
"3X c #92CB6C",
"4X c #95C972",
"5X c #C1CC63",
"6X c #D1EB7B",
"7X c #6E7380",
"8X c #737682",
"9X c #737B81",
"0X c #D2708B",
"qX c #9A9584",
"wX c #9CB480",
"eX c #D78A89",
"rX c #D69493",
"tX c #FEA7B5",
"yX c #ABC090",
"uX c #DCF486",
"iX c #E9FD8F",
/* pixels */
"( M.l.* { I.0.{ v.<X0.n n J.;.d.d n 6 @.5 > oX7 > q.@X|.6 @.",
"_ m...5 4Xv.& ; 2.g j f.y./.K.^.%.r.h h 6 2X, =...@ )  X9.' ",
"` ..#...1Xv.= k ;.J.Z.R.~.>X*X>X~.Y.D.d.a b ,X=.^ +.( $ ( #.",
"^ $ m.h._ 6 b J.S.a.R.g.~.>X=X:XQ.u.R.7.A.p.3X} * } ` @.9.m.",
"o.< +.=.*.` : S.%.E.&.Q.~./.:X~.^.!.x.K.%.Z.3 h.X.* ' .XX.l.",
"/ O.-.&X5.:.9X7.U.E.t.E.E.Q.>X~.E.eXrXW.A.7.7X,.b.h.k.k..X=.",
"1 }.{.z.Y >.D.d.u.] K.g.g./.R.~.d.T.T.Q d.J.Z.;.; =.k.' .X.X",
"5XuX).^ -  .T S.a.Q ! s.%.~.r.~.~ r.! T A.Z.T T x .Xl.' ..,X",
"iX6X;X$.R 1.V.rXqXd.&.E.I %.H.~ Q Q.r.d.a.~ Z.1.;.l.% # ( .X",
"iX;X;Xf p.Z L.0X#XG.r.y.s.&./.t.y.y.r.G.D.S.C 3.F.s k.@.X.h.",
").}.XX(.z p s.7XR 7.J.r.K.&.t.r.d.s.G.6.C N.1.a m 2Xj.) X.m.",
"(.-X}.f D a k g I S.D.A.r.t.U.s.D.G.D.D 1.p B i <.4.+.) m.&X",
"5XiXoXN.s.V.B C k B  .5.a.9X7.N.%.D I i C n s a.<.r @.' h.k.",
";X6Xw.B K.r.Z.1.9Xh  .B.s.j T C 1.k Z.a a C.E 6.K. .P.n.#.' ",
"/ O.8 V D.,.a.U.1.3.7.Z k S Z 4.B 9Xa E 4.:.U ;.S v e..X+X#.",
"/ O.|.e.B ,.1.f.N.N.K.n  .i.5.&.m  .1.w.tXrXR j N 9 ( +.M.m.",
"(.oX{.v 8XZ A j W N.J.7.E.K.s.I.J.R s.S eX0XS d C.3 #.X.l.k.",
"o.,X9.% g T n Y 1.= ; 9 1.s.d. .%.7.= ; ~ : Y t k..., ' .X=.",
"^ +.$.{ w.Y c g  .<.~ U P T d.R Y T T 5.<.N N.0..X_ ^ } _ ..",
"} _ #.9.M.7 z w D s 9 U : j >.d T T g b 8XX - j.=.( _ h.+..X",
", 6 k.0.8  XM 4 O = 8Xc Z.l 9Xc  .V 9Xw e c z q.OX@.( #.3X3X",
"< , 9. X$Xc.K J x 2 = o ; r b   ; X Y e r H %X-.+X0.( h..Xj.",
"9.@.b.4XyX{.|.H 4 H z e u . u u . y O q L q {.-X+X[ ..1X..{ ",
"`  X,X0.0.wX+X_.{.'.L + L x F F z G + `.`.{.{.$X=.* h.+X{ ( ",
"} 8.@.* ) +XP.k.#X).q.0 [.%Xq q %X].0 -X#X+X#X..= ' #.6 { ' ",
"q.% | 2.& k.} & 5 @.@...9.q.& ..@.9.k.3X( | v. Xj.X.X.X.{ 0.",
"9... Xk.j.,Xm.#.h..X#.) ..( h.h.l.{ l.#.) h.#.8.h.{ ) { l.X.",
"X.m.M.@.3X.X1Xh., } n.l.#.1X+X' #., j.8.M.m.' & ; | | { X.<.",
" X,X=._ 3X.X#.) #.+Xb.h.1Xm.} X.....b.1X#.{ 0.0.{ ) 1.0.q.| ",
"3Xh.= ^ &X9.X...h.k.( , k.5 _ k.( 8.b.,X( { 2.X.) | b.v.) | "
};
