/* XPM */
static char *e637fa4561aa44fff09466920b26f0b8yuYg89hAZTvy32k2[] = {
/* columns rows colors chars-per-pixel */
"28 30 33 1 ",
"  c #170625",
". c #341B2E",
"X c #7B433B",
"o c #5A2F40",
"O c #5C3446",
"+ c #766A63",
"@ c #D2390E",
"# c #D64B0E",
"$ c #D64D0E",
"% c #E9600E",
"& c #F46C0E",
"* c #9F5A5C",
"= c #B86A4A",
"- c #B87364",
"; c #FF890E",
": c #FFA30E",
"> c #948974",
", c #E28251",
"< c #FFBC56",
"1 c #D28D6D",
"2 c #C3967A",
"3 c #F2A66F",
"4 c #F3A76F",
"5 c #F3A770",
"6 c #FFC14A",
"7 c #FFC47B",
"8 c #FFC87B",
"9 c #BDB28B",
"0 c #E6B495",
"q c #E6B698",
"w c #FFE095",
"e c #F7E3D2",
"r c #FFFEE8",
/* pixels */
"9999>>++      >>      ++>>99",
"999999999999ooOO********9999",
"999999999999ooOO********9999",
"99999999  ..2200eeeerrrrOO99",
"99999999  ..2200eeeerrrroo99",
"999999  ,,77wwXX77rrrreeeeoo",
"999999  ,,77wwXX77rrrreeeeoo",
"9999    ,,5577,,==rrrr==ee..",
"9999    ,,5577,,==rrrr==ee..",
"99  77**,,553333,,77rr87..99",
"99  77**,,553344,,77rr77..99",
"  ww11**##%%&&%%%%@@ee$$  99",
"  ww11**##%%&&%%%%@@ee##  99",
"  77**  @@##@@&&&&%%00@@  99",
"  77**  @@##@@&&&&%%00@@  99",
"  11    ##%%$$::;;%%<<##  99",
"  11    ##%%##::;;%%<<##  99",
"  11**  ##&&$$66;;@@rr##  99",
"  11**  ##&&$$66;;@@rr##  99",
"  **--  ##;;&&&&::&&@@;;  99",
"  **--  ##;;&&&&::&&@@;;  99",
"99  --**@@##@@%%&&##&&@@  99",
"99  --**@@##@@%%&&##&&@@  99",
"99  **--##%%$$::;;%%;;##  99",
"99  **--##%%$$::;;%%;;##  99",
"9999  **##&&$$66;;&&::##  99",
"9999  **##&&$$66;;&&::##  99",
"999999  ##;;&&&&::&&&&##  99",
"999999  ##;;&&&&::&&&&##  99",
"999999  **,,5577eerreeqq  99"
};
