/* XPM */
static char *choppes1646218416[] = {
/* columns rows colors chars-per-pixel */
"30 30 225 2 ",
"   c #1E0025",
".  c #2C1729",
"X  c #331C2A",
"o  c #3D1E2F",
"O  c #37262C",
"+  c #352B35",
"@  c #6F121B",
"#  c #711C1B",
"$  c #77291B",
"%  c #5A3539",
"&  c #6D292B",
"*  c #653B3C",
"=  c #245B00",
"-  c #2F6609",
";  c #346A0C",
":  c #3D740F",
">  c #386D12",
",  c #3C7517",
"<  c #477505",
"1  c #467818",
"2  c #437B1D",
"3  c #547D1B",
"4  c #687310",
"5  c #757A16",
"6  c #467D25",
"7  c #573A44",
"8  c #524947",
"9  c #6E4443",
"0  c #784547",
"q  c #6C5953",
"w  c #73614E",
"e  c #756758",
"r  c #79715B",
"t  c #7B7066",
"y  c #81271E",
"u  c #853F1B",
"i  c #802A20",
"p  c #CD3B12",
"a  c #D13F17",
"s  c #924A3B",
"d  c #D54B0F",
"f  c #D8480E",
"g  c #DC550E",
"h  c #CF4716",
"j  c #CF4810",
"k  c #D34A15",
"l  c #D54D15",
"z  c #E45808",
"x  c #E55C0E",
"c  c #DE6516",
"v  c #EB640E",
"b  c #EB680E",
"n  c #F26D0E",
"m  c #F6790E",
"M  c #EC6411",
"N  c #EA6A1A",
"B  c #F07513",
"V  c #F7781C",
"C  c #D45229",
"Z  c #D4502A",
"A  c #DD682B",
"S  c #E66323",
"D  c #F57820",
"F  c #EC7339",
"G  c #844C4C",
"H  c #815754",
"J  c #965756",
"K  c #AB5348",
"L  c #B75D51",
"P  c #8C684C",
"I  c #88685D",
"U  c #996B56",
"Y  c #AE6D52",
"T  c #A6645E",
"R  c #897E67",
"E  c #9E7F64",
"W  c #AF6B61",
"Q  c #B26E62",
"!  c #B67762",
"~  c #CC784E",
"^  c #C16753",
"/  c #E97D45",
"(  c #EB7A4F",
")  c #C07F65",
"_  c #49851E",
"`  c #538C14",
"'  c #568D15",
"]  c #628915",
"[  c #72841D",
"{  c #4C8424",
"}  c #4F8925",
"|  c #4C842B",
" . c #4E8C2B",
".. c #538424",
"X. c #578925",
"o. c #52872A",
"O. c #538A2C",
"+. c #5B8C2C",
"@. c #58922F",
"#. c #4F8D38",
"$. c #548C35",
"%. c #578D37",
"&. c #558E3A",
"*. c #5C9334",
"=. c #57913D",
"-. c #5D943A",
";. c #678D2B",
":. c #6E902B",
">. c #78972B",
",. c #619A35",
"<. c #679939",
"1. c #649B3C",
"2. c #5CA02F",
"3. c #7CA32C",
"4. c #69A13D",
"5. c #76A434",
"6. c #5C9542",
"7. c #6A8B49",
"8. c #659D43",
"9. c #6B9E41",
"0. c #69984A",
"q. c #789252",
"w. c #6DA345",
"e. c #6EA947",
"r. c #6DA44B",
"t. c #79A744",
"y. c #72AA46",
"u. c #71A649",
"i. c #73AB4C",
"p. c #77B24B",
"a. c #6DA650",
"s. c #78AE56",
"d. c #7CB354",
"f. c #7EB758",
"g. c #78C14E",
"h. c #84932E",
"j. c #949638",
"k. c #8DAA3C",
"l. c #A4A23E",
"z. c #F9870E",
"x. c #FA8D13",
"c. c #FC9717",
"v. c #FF9D28",
"b. c #FB9633",
"n. c #FCA32D",
"m. c #F9A53A",
"M. c #B9835C",
"N. c #BE905D",
"B. c #91AF4C",
"V. c #86B34B",
"C. c #9AB445",
"Z. c #83B657",
"A. c #83BB5B",
"S. c #8BBC5C",
"D. c #96BC55",
"F. c #ACB851",
"G. c #888167",
"H. c #8C8469",
"J. c #96886E",
"K. c #93906D",
"L. c #958872",
"P. c #A78263",
"I. c #B28A73",
"U. c #87BE60",
"Y. c #B3A475",
"T. c #DB8854",
"R. c #F18144",
"E. c #E68757",
"W. c #E7935F",
"Q. c #F3A651",
"!. c #C98768",
"~. c #CC916F",
"^. c #E29C7C",
"/. c #EFAC6A",
"(. c #F2A26A",
"). c #E5A378",
"_. c #F4AA71",
"`. c #EBB776",
"'. c #F7B373",
"]. c #87C359",
"[. c #94C558",
"{. c #AAC556",
"}. c #B6C85B",
"|. c #BAD25D",
" X c #8AC161",
".X c #8ECB63",
"XX c #8EC569",
"oX c #95C966",
"OX c #94CB6B",
"+X c #9DD275",
"@X c #B3D56C",
"#X c #B8D869",
"$X c #A3D87B",
"%X c #CED36E",
"&X c #FCC37E",
"*X c #D2EB7B",
"=X c #BB8F88",
"-X c #AA9A89",
";X c #BD988F",
":X c #BD9C92",
">X c #B7A787",
",X c #BCB18B",
"<X c #B6A397",
"1X c #BCADA2",
"2X c #BCB4A7",
"3X c #D9A784",
"4X c #F0BA89",
"5X c #D0BEAD",
"6X c #ECBEAB",
"7X c #B0E887",
"8X c #F3CA8A",
"9X c #DCF486",
"0X c #E9FC8D",
"qX c #EBF892",
"wX c #F7C8A8",
"eX c #E8CAB5",
"rX c #F7D2B1",
"tX c #F5D5BD",
"yX c #F2D8C6",
"uX c #EFE0C9",
"iX c #FBE7CD",
"pX c #F7E9D6",
"aX c #FEF2D5",
"sX c #FDF9E4",
"dX c #FEFBE5",
/* pixels */
"4 B.:.3 2.4.2.O...u.S.,.<.-.3 <.i.d.OX<.u.Z.,  .*.4.*.2 $.A.",
"j.j.:.:.5.].g.` B.<.:.Z.3 +.9.9.OXu.,.6 r.s.2 1. X7X.Xw.r.y.",
"F.4 5 C.k.].2.>.B.D.[.[.t.V.1 <.U.o.2 *.| , a.A.f.A.<.w.e.O.",
"l.4 %X9Xk.] ` k.{.@X%X$X@X;.X.+.+.w.XX$X1., e.f.@.{ 1.f.i.O.",
"}.%X0X*X%X,XM.7. . .{ <.7.J.H I I.=X=X:X:X-X-X>X,X; O.p.; = ",
"] %X0X|.|. .R P. . .K.% 9 I 3X3XrXiXpXsXsXsX-XL.>X*.w.Z.r.,.",
"< 3.k.l.C.@.T.Y. .G.P ~ ).&X8XE 3XrXsXsXsXpXyX:Xr d.oXOXu.o.",
"` ] h.{.C.B. . .7.8 s T./.&X&X) !.4XsXsXpX5XyX1X7 d..Xd.*.o.",
"' 3.#X0X}.,XY.O.w % G E.(._.'.W.~ ~.sXsXyX!.eX<Xq y.d.1.1.} ",
"< >.@X*X{.,X7.P /.M.L T.(._._._.E.W.8XaXaX`.E L. .y.e.p.+Xs.",
"k.h.[ >.B.r } %X).! L A / / R.R.F F ( tXtXT.& H. .f.4.1. XA.",
"qXF.[ >.D.+ Y.8X~.U K k x M n v M v C 6XeXj $ H. .s.*.o.{ &.",
"%Xj.h.F.V.O !.`.T * $ p f f f M n n N 3X^.p @ G. .2 *.f.-.*.",
"D.< ;.U.1.X Y ~.9 X y d z g g z.x.m N Q.W.j # G. .*.].,._  .",
"p.;.3 9.4.. T ) 0 o i d v v c n.v.m S 4X4Xh # G. .p.].} { @.",
"5.oX+.o.<.. J ) T % $ d b b N Q.n.z.C tXtXC $ G. .e.4._ } w.",
"4.D.1 1 u.  0 W Q 9 y f m m n D c.c.N ( E.B u G. .@.} -.} 4.",
";.S.6 1 u.J.I G Q J s a v v z b m z.z z z c $ G. .@.4.-.{ e.",
"..Z.9.9.s. .R * W T L a f f f b n n g b b p # G. .i.f.2 *.XX",
"+.> o.Z.XX .G.% J W ^ k x x g c.c.z.v m m j # G. .i.8., 4.f.",
"$Xo.+.8.<. .q.R 9 J L k v x N m.v.z.n x.z.j # q. .%.,  .8.6 ",
"%.+Xu.- -. . . .r w K f n b N m.v.x.n x.z.j @ R #.f.e.-.-.6.",
"<.U.9.-.f. . . . .e i l z.V V D b.m.( F F C & R  .w.w.%.6 &.",
"o.-.-.s.f. . . .} e * K E.E.Q./.wXtXiXyXwX3X0 R  .> , &.&.%.",
"..9.Z. X1. . . . .e 7 9 K Y M.N.3X1X2X2X<XI.q G.q.r.#.| 6.0.",
"6 i.OXt._  .q.L.t q 8 . . X O X O + + + + + q R L.6.| &.s.a.",
"; ,.p.{ : 2.d.<.OX7Xa.=.O.O.*.f.f.{ 6 d.a.$.r., &.0.6.| 6 &.",
"+.,.4.*.4.].p. .6.s. Xf.{ - 6 A.i.> =.OXr.- r.r.&.#.6.a.0.6.",
"].w.,.y..X]._ <.=.{ *.d.w.| { 6  . .{ %.@. .| 6.#.| 6.6.&.#.",
"{ < <.y.y._ O. Xw.{ i.XX9.%.r.r.a.=.6.6.6 6.6.6.6.6.6.0.7.&."
};
