/* XPM */
static char *coins1646217902[] = {
/* columns rows colors chars-per-pixel */
"30 30 173 2 ",
"   c #255C00",
".  c #336404",
"X  c #31660C",
"o  c #346B10",
"O  c #396E11",
"+  c #346F1D",
"@  c #3A7214",
"#  c #367A11",
"$  c #3B731A",
"%  c #3E7925",
"&  c #5B4311",
"*  c #4A760D",
"=  c #447513",
"-  c #407A16",
";  c #44741B",
":  c #437A1D",
">  c #4E7C1A",
",  c #537D1A",
"<  c #627B15",
"1  c #757A16",
"2  c #467D22",
"3  c #4A7E24",
"4  c #477F28",
"5  c #414548",
"6  c #5C5D5D",
"7  c #7A7A79",
"8  c #976F1A",
"9  c #A4791D",
"0  c #3F861E",
"q  c #399120",
"w  c #43851E",
"e  c #4B8224",
"r  c #498625",
"t  c #478F25",
"y  c #4D852A",
"u  c #4E8C2B",
"i  c #538425",
"p  c #548B26",
"a  c #5A8A27",
"s  c #52872A",
"d  c #538A2C",
"f  c #5A8C2C",
"g  c #459425",
"h  c #5C922C",
"j  c #589929",
"k  c #4F8B31",
"l  c #558D32",
"z  c #598E32",
"x  c #528E39",
"c  c #4F9036",
"v  c #549532",
"b  c #5B9235",
"n  c #5D9A34",
"m  c #56963A",
"M  c #5D953B",
"N  c #5D9A3A",
"B  c #658A29",
"V  c #648C2E",
"C  c #718727",
"Z  c #67922A",
"A  c #70932B",
"S  c #629435",
"D  c #649934",
"F  c #6B9C36",
"G  c #61963C",
"H  c #649A3D",
"J  c #6A9D3C",
"K  c #759A35",
"L  c #7A9D39",
"P  c #5CA029",
"I  c #58A537",
"U  c #55B23F",
"Y  c #66A333",
"T  c #62A339",
"R  c #68A73D",
"E  c #74A737",
"W  c #70A23D",
"Q  c #62B237",
"!  c #5B9743",
"~  c #5D9A44",
"^  c #6D9340",
"/  c #659C42",
"(  c #6A9E42",
")  c #639E4A",
"_  c #5CB645",
"`  c #64A243",
"'  c #6CA345",
"]  c #66A24C",
"[  c #6EA54A",
"{  c #6EA94C",
"}  c #72A443",
"|  c #71A449",
" . c #73AA4C",
".. c #7DA848",
"X. c #77B74A",
"o. c #7AB34F",
"O. c #6AA351",
"+. c #6EA953",
"@. c #76AE52",
"#. c #79AF53",
"$. c #74B454",
"%. c #7CB254",
"&. c #74BA51",
"*. c #75B159",
"=. c #7DB559",
"-. c #7EB95B",
";. c #739C64",
":. c #78A069",
">. c #7EBE63",
",. c #77C14C",
"<. c #6DCC58",
"1. c #7DCA5D",
"2. c #7ED15B",
"3. c #939739",
"4. c #B18322",
"5. c #C29026",
"6. c #D59D28",
"7. c #E2A629",
"8. c #EEB539",
"9. c #8BAC49",
"0. c #95AE4E",
"q. c #89B846",
"w. c #86B14F",
"e. c #99B34C",
"r. c #82B554",
"t. c #89B657",
"y. c #81B55A",
"u. c #83BA5D",
"i. c #89BB5C",
"p. c #97B956",
"a. c #A4B556",
"s. c #B5B859",
"d. c #8EB562",
"f. c #85BD61",
"g. c #8ABE62",
"h. c #D4B25A",
"j. c #88C34F",
"k. c #87C257",
"l. c #99C55C",
"z. c #84D35E",
"x. c #8BC265",
"c. c #84C568",
"v. c #8EC569",
"b. c #91C467",
"n. c #93CA6C",
"m. c #86D568",
"M. c #92C671",
"N. c #96CC72",
"B. c #9DD376",
"V. c #9ED578",
"C. c #ABCC6B",
"Z. c #BACB6D",
"A. c #A0C371",
"S. c #A2D679",
"D. c #A7D979",
"F. c #FDC746",
"G. c #FFD34E",
"H. c #FFDD52",
"J. c #FFE959",
"K. c #CCC76B",
"L. c #C3D074",
"P. c #FFFB66",
"I. c #939695",
"U. c #B1B1B0",
"Y. c #B2E387",
"T. c #B3E993",
"R. c #C3FA9D",
"E. c #FFFE83",
"W. c #F4F49A",
"Q. c #FFFEA6",
"!. c #CDCDCC",
"~. c #FFFFC8",
"^. c #E6E6E6",
/* pixels */
"' G H ; H #.V.H b : e =. .@ f >.~ l +.c./ l @./ 4 s y.3 3 S ",
"V z v 0 _ <.U q m.0 u %.b 2 N.+.+ % ) 4 M / ( G ' g.y s G b ",
"t.u.n 0 I I g t &.X.h f / b x.O.% k +.3 v.#.z s ' ( : / %.v ",
"i. .w j T j h a F D., . o.' t 4 l ^ / / M.3 3 V J z b b ` N ",
" .H h p h K C.0.< 0.C , D T n f f } t.S F S i S  .=.n.G  .-.",
"` o b } C.a.a.s.3.3.C A E k.,., w.K V t., f ( ( n.| b : { %.",
"1.$.H > w.Z.Y.K.s.1 C e.q.j.P K 9.p.b.p...w.= J i.p : v e $ ",
">.>.: a A 0.h.:.;.;.u ;.U.I.U.U.h.U.!.u u u ;.f f ' v.Y.G @ ",
"] $.@ u.* * < u i i U.U.~.P.8.G.H.J.8.I.u u u J . /  . .u.=.",
"z y d N - P E u p U.^.H.9 h.F.F.F.5.8.G.7 u u f 2 f x.u ' x.",
"d.| u 1.,.Q P t !.!.h.5.H.H.H.H.G.H.F.6.8.I.u b.=. .' r N %.",
"A.y.u &.1.2.Q d h.P.4.H.8.8.8.8.8.8.G.F.F.9 ;.#.-.f.M e b ' ",
"^ ^ M t g z.,.!.h.h.G.H.9 8.8.8.8.8.H.G.7.7.U.l / M.N l H r.",
"; 3 H v # Y Y U.J.4.H.G.4.G.H.G.G.F.H.G.8.F.I.~ r *.y O p o.",
"H 2 p r.f B W U.H.4.H.G.4.G.G.G.G.F.G.G.F.F.I.*.r c y ; p J ",
"u.d ; ..L 0.L.U.8.5.G.G.4.F.G.G.G.F.H.G.G.8.I.+.~ M %.#.} F ",
"{ M i B C L.W.^.5.8.G.G.h.~.~.~.Q.Q.G.F.P.5.!.x *.m f.=.H a ",
"~ l s w J k.l.d 7 8.6.G.H.J.J.J.J.H.F.E.H.& u l #.B./ b e : ",
") @./ s W X.Z u l 8 F.8.F.G.G.G.F.F.E.E.8 !.u b %. .: u.#.e ",
"] =./ y F D * :.;.!.8 F.G.P.P.E.Q.~.H.8 I.u u M / f @ %.u.M ",
") ) l d F W W u u u u 6 9 8.G.G.h.4.5 !.u u u M b  ./ M %.@.",
") x k G %.i.t.u u d u u ^.U.I.I.I.U.u u u u d H %.n.u.b %.u.",
"O.) x ( r. .D > , r.( / =.M.T.M  .@.' u.G ' d [ v.' d e N H ",
") ) M G H b f } f O s d.g.) /  .@. .( u.x.` f `  .: M G s y ",
"! ! ! / 4 S g.Y.D.s z / M $ y g.M : : H x.e b z y G R.S.H z ",
"! x ! g.$ 3 z G S A.| X G M o [ b o O M G z ' H   z z `  .V.",
"~ ~ x ) z M y.( ^ f./ S =.{ [ v.%.H ' u.R y M e ' '  .b  .H ",
"c ] ) *.N.( / z s b S =.=.N n.k.v.' $ f #.| H v.f.d H : ' / ",
"m m r M f.f.%.l s / =.k.R s n.u.H u H x. .' v.%.z b b b @.v.",
"v ` M ` r @. .d e  .n.} - r u./ M b ' | e : [ e s { e H @.x."
};
