/* XPM */
static char *_22e6c5db4b54315acf2c3a1066ec0f8Oz8um3d2XcLtBX2h[] = {
/* columns rows colors chars-per-pixel */
"30 30 217 2 ",
"   c #C67F0A",
".  c #CB7D28",
"X  c #D38E05",
"o  c #D5990A",
"O  c #C78112",
"+  c #D38A1A",
"@  c #DA9416",
"#  c #D09911",
"$  c #E49705",
"%  c #EB9604",
"&  c #E49C02",
"*  c #EC9B04",
"=  c #E7960B",
"-  c #ED950A",
";  c #E59A0B",
":  c #EC9A0C",
">  c #F39505",
",  c #F29C03",
"<  c #F5940A",
"1  c #F59D0B",
"2  c #E39A13",
"3  c #EC9C11",
"4  c #E39618",
"5  c #EF9C19",
"6  c #F09F10",
"7  c #E1A107",
"8  c #EAA402",
"9  c #E4AC04",
"0  c #ECAB05",
"q  c #EDA30B",
"w  c #E5AB0B",
"e  c #ECAD0B",
"r  c #F2A404",
"t  c #F4AC04",
"y  c #F9AE04",
"u  c #F3A40C",
"i  c #F3AC0A",
"p  c #F9AA0D",
"a  c #EDB303",
"s  c #ECBA03",
"d  c #E2B10B",
"f  c #F4B302",
"g  c #F8B305",
"h  c #F3BB04",
"j  c #F4B50B",
"k  c #F4BB0C",
"l  c #EAA511",
"z  c #EAAB14",
"x  c #E9A91A",
"c  c #F2A414",
"v  c #F5AA12",
"b  c #F2AE18",
"n  c #EBB915",
"m  c #F4B413",
"M  c #F9B414",
"N  c #F2BB12",
"B  c #F5B218",
"V  c #F4BC1D",
"C  c #CD8723",
"Z  c #DD9132",
"A  c #E7952C",
"S  c #DDAA37",
"D  c #EAA628",
"F  c #EFBC29",
"G  c #ECC403",
"H  c #EDCB05",
"J  c #EFCA0A",
"K  c #F2C302",
"L  c #F8C504",
"P  c #F4CD06",
"I  c #FCCB03",
"U  c #F2C20C",
"Y  c #F9C60E",
"T  c #F6CD0B",
"R  c #FACA0D",
"E  c #EFD506",
"W  c #F5D104",
"Q  c #FBD202",
"!  c #FCDE04",
"~  c #F7D50F",
"^  c #FCD309",
"/  c #F4DE0D",
"(  c #FEDD09",
")  c #EBC915",
"_  c #F5C212",
"`  c #F6CC13",
"'  c #FBC814",
"]  c #F4C018",
"[  c #F3C91B",
"{  c #EEDE17",
"}  c #F6D313",
"|  c #F7DE15",
" . c #F7E207",
".. c #FDE202",
"X. c #FDEC04",
"o. c #FAE30C",
"O. c #FDF404",
"+. c #F5FD05",
"@. c #F8F905",
"#. c #FFF60A",
"$. c #FAFA0C",
"%. c #FDE416",
"&. c #F9E719",
"*. c #F7EB19",
"=. c #FCE91C",
"-. c #FDF511",
";. c #FBF118",
":. c #F7CC26",
">. c #F8CA26",
",. c #F9D622",
"<. c #F7DE24",
"1. c #FBDC2B",
"2. c #F9CC39",
"3. c #EED135",
"4. c #ECD838",
"5. c #F5D732",
"6. c #FBE62F",
"7. c #FAF323",
"8. c #FBFA26",
"9. c #FAF32C",
"0. c #FCFB29",
"q. c #F5E63D",
"w. c #F6EF39",
"e. c #E3BC47",
"r. c #DEC854",
"t. c #F9CB45",
"y. c #F4D858",
"u. c #EEE64E",
"i. c #FBE74B",
"p. c #F7F947",
"a. c #F7F64A",
"s. c #FCF74F",
"d. c #F9FA4F",
"f. c #FCEE52",
"g. c #FBFB54",
"h. c #FAF45A",
"j. c #E7DD61",
"k. c #F2D36B",
"l. c #F1CF7A",
"z. c #F6D87D",
"x. c #E3E06C",
"c. c #FBF960",
"v. c #F6EA72",
"b. c #F8EF7A",
"n. c #F3F071",
"m. c #F9F271",
"M. c #FEDD88",
"N. c #EBD49D",
"B. c #F7DA9B",
"V. c #F5E989",
"C. c #F9F08E",
"Z. c #ECE498",
"A. c #F6EA96",
"S. c #F8EF98",
"D. c #FAF79A",
"F. c #F3D5A1",
"G. c #F9D7AF",
"H. c #F4DCB6",
"J. c #F2E8A7",
"K. c #F3F2AC",
"L. c #F6EDB5",
"P. c #F9EFB1",
"I. c #F4E3BE",
"U. c #F9F4B7",
"Y. c #F6D7C4",
"T. c #F1DFDC",
"R. c #EEE6C7",
"E. c #E7EECF",
"W. c #F4E8C2",
"Q. c #FEF2C9",
"!. c #E6EBDD",
"~. c #ECECDD",
"^. c #F7E6D4",
"/. c #F9EFD7",
"(. c #E7F1DE",
"). c #ECF8DB",
"_. c #F2F3D6",
"`. c #E6E6E6",
"'. c #E6ECE3",
"]. c #ECEBE5",
"[. c #E7E5EE",
"{. c #EDE7EF",
"}. c #E4ECEE",
"|. c #ECECED",
" X c #F2EEE6",
".X c #FAEDE3",
"XX c #F1EBEB",
"oX c #ECF2E2",
"OX c #E9F7E7",
"+X c #EBF5EC",
"@X c #F3F5E5",
"#X c #FBF2E4",
"$X c #F4FBE5",
"%X c #F3F3EC",
"&X c #F9F6EB",
"*X c #F5F9ED",
"=X c #F9FDEC",
"-X c #EAE5F6",
";X c #EEEBF3",
":X c #EFE0FC",
">X c #ECEEFA",
",X c #F3E5F4",
"<X c #F4EDF2",
"1X c #FBEFF7",
"2X c #F7EDFA",
"3X c #EDF2F3",
"4X c #EFF0F9",
"5X c #F3F3F3",
"6X c #F5F5F5",
"7X c #F6F6F6",
"8X c #FCF3F4",
"9X c #F6F9F3",
"0X c #FBFBF3",
"qX c #F4F3FA",
"wX c #FAF5FB",
"eX c #FAFAF9",
"rX c #FCFCFC",
/* pixels */
"6X5X5X6X5XqXqX5X@X3X5X+X5X2X<X<X5X5XOX+XqX4XqX5X;X5X@X5X6X6X",
"`.eX6X|.eX{.qX+X3X9X,X#XW.J.A.V.P.I.~.rX'.$X3X3X*X~.5X9X+XeX",
"rX`.5X6X`.eX'.*X#XH.k.,.} W P Q ~ %.7.m.Q.XX@XqX}.0X,X6X6X`.",
"|.eX5X|.eX!.8X^.l.[ k p i t t f M B U ~ =.m..X;X$X-XwX%X[.rX",
"9X<X5X5X|.|.J.5.k c 6 r r t f f y f j s J / p.K.;X%X<X5X5X|.",
"&X4X%X%X3XS.<.s u u r r t 8 0 a y f f h s k P 9.K.1X<X6X5X%X",
"].6X%X%XU.&.G b i t 0 u u 0 ) *.h t f f f k n } 7.R.qXqX;XrX",
"rX~.5X#Xa.P j g f t c r u d ;.+.%.s a g g n h L } d.~.5XwX[.",
"[.*X8XC.%.U k k g t g i d *.$.+.O. .a f f f f M U &.D.%X|.rX",
"*X>X_.w.W L h h h f p w { $.@.-.+.#.} f f f B k s ` b.).*X;X",
"5X).Y.| h U U V N L R  .X.X.X.X.X.O.X.o.E G a s s G &.Q.%X|.",
"XX+XM.H f N _ ' Q ( ..! ! ..! .. .....! ( ( ^ ' N 0 J V.;XrX",
"0X].5.a t 0 # T Q ~ Q I W Q Q Q ^ I ^ Q Q Q Q ] $ q s f.6X[.",
"'.%X,.9 p v X w R ` Q I I I I I L I I I I I R 7 * q z 6.}.6X",
"@X].>.8 r r i   k ' Y I I I I L I I I I P Y 0 * * 8 x <.+X{.",
"@XXX:.c r 8 p t O >.T I I I I I I I I I I V $ * * * D 1.+X@X",
"'.8X3.p r 8 1 0 A o W Q Q Q I ^ Q Q Q Q Q 8 * * = : f i.-X8X",
"0X,Xk.f , 3 - & 5 #  .....................f % & : : s A.6X`.",
"].&XH.K - 2 > & % @ -.O.#.#.#.#.O.O.O.O.O.s * * = * U R.<XwX",
"5X+X^.:.- $ > % * + 7.8.8.8.8.8.8.8.0.0.0.k > * * 8 t.XX5X{.",
"%X3X<Xz.f ; - * % C a.g.d.g.f.4.u.h.g.g.s.F * , : s B.qXXX5X",
"oX9X%XT.2.q > % - . n.j.e.D @ l @ @ S r.x.e.8 1 8 y.#X5X;XeX",
"rX].3X&XY.) 1 < 3 + Z - ; 7 q u i e e e 4 q r l <.^.~.5X7X`.",
"!.wX%X(.8XB.U 1 & A < - % % * 8 w 9 0 9 d b a | U.`.*X%X|.eX",
"6X X5X+X;X1XZ.[ x 2 % ; $ - : : , 8 0 0 a P q.L.-XqXoX3X6X|.",
"%X5X%X3XoX8XoXR.2.V 3 > % * - : * 8 9 H &.h./.;XoX%X<X5X5X<X",
"[.6X6X5X6X;X6X<X-XJ.j.[ h f g m k R 6.v.L.*X6X%XwX].6X6X3X9X",
"rX|.%X6X].wX|.).qX:X1XT.Y.G.F.F.N.I./.-XeX|.5X6X`.rX|.5XeX`.",
"|.9X5X{.eX].9X3X>X=XE.*X#X].eX;X$XOX(.$X'.6X<X|.rX`.5X5X|.eX",
"6X5X5X5X|.9X%X%X5X>X6X>X%X%X+X4X;X;X5X<XqX6X5X6X|.eX5X5X6X|."
};
