/* XPM */
static char *herbe1646216106[] = {
/* columns rows colors chars-per-pixel */
"30 30 185 2 ",
"   c #1C5400",
".  c #255C00",
"X  c #2C6406",
"o  c #336404",
"O  c #31660C",
"+  c #356A0D",
"@  c #3C7C0A",
"#  c #356C11",
"$  c #386E12",
"%  c #346F1D",
"&  c #3B7313",
"*  c #3C741A",
"=  c #3F781A",
"-  c #3E7925",
";  c #435906",
":  c #416D00",
">  c #436D09",
",  c #437413",
"<  c #407A16",
"1  c #41771A",
"2  c #437B1D",
"3  c #4C7D1D",
"4  c #537D1A",
"5  c #607C0E",
"6  c #747F19",
"7  c #457D22",
"8  c #4A7D23",
"9  c #477F28",
"0  c #497D28",
"q  c #507B21",
"w  c #4D870E",
"e  c #47811C",
"r  c #48801F",
"t  c #52801E",
"y  c #578D1A",
"u  c #6A8517",
"i  c #71801B",
"p  c #728B1C",
"a  c #7A8D1D",
"s  c #4B8324",
"d  c #4D8A26",
"f  c #4C842A",
"g  c #4D8A29",
"h  c #548424",
"j  c #508827",
"k  c #5B8B27",
"l  c #51872A",
"z  c #538A2C",
"x  c #5C8C2B",
"c  c #57902F",
"v  c #59922F",
"b  c #4F8B31",
"n  c #558D32",
"m  c #598F32",
"M  c #548F39",
"N  c #588F3B",
"B  c #5B9335",
"V  c #5D953A",
"C  c #5F983A",
"Z  c #608A26",
"A  c #698C24",
"S  c #648E2D",
"D  c #6C8A28",
"F  c #7D9525",
"G  c #72952D",
"H  c #7A952C",
"J  c #7E9C2D",
"K  c #629436",
"L  c #6E9731",
"P  c #629935",
"I  c #6C9B37",
"U  c #61963C",
"Y  c #649B3C",
"T  c #6C9D3C",
"R  c #7B9C33",
"E  c #779738",
"W  c #5CA029",
"Q  c #5BA035",
"!  c #63A239",
"~  c #6BA03F",
"^  c #72A63A",
"/  c #7DA33D",
"(  c #5F9E43",
")  c #669D42",
"_  c #699E42",
"`  c #659E49",
"'  c #67A042",
"]  c #6CA344",
"[  c #6EA844",
"{  c #6DA549",
"}  c #6EA84A",
"|  c #73A445",
" . c #7AA543",
".. c #70A847",
"X. c #71A649",
"o. c #73AA4C",
"O. c #7CAA49",
"+. c #79B04F",
"@. c #6DA550",
"#. c #6EA953",
"$. c #76AE52",
"%. c #79AF53",
"&. c #75AC58",
"*. c #7BB354",
"=. c #72B05A",
"-. c #7EB559",
";. c #7FB85A",
":. c #7EBD62",
">. c #78C14E",
",. c #848E2D",
"<. c #859D2F",
"1. c #8DA02D",
"2. c #8AA231",
"3. c #88A439",
"4. c #82A939",
"5. c #91AC37",
"6. c #91AB3D",
"7. c #98AB38",
"8. c #8AB13E",
"9. c #93B03C",
"0. c #9FB23F",
"q. c #86AD48",
"w. c #8BAE48",
"e. c #89B846",
"r. c #86B14F",
"t. c #8BB34A",
"y. c #94B144",
"u. c #9FB442",
"i. c #96B74B",
"p. c #98AB59",
"a. c #84B554",
"s. c #8EB653",
"d. c #80B957",
"f. c #81B65B",
"g. c #8FB65D",
"h. c #83BB5C",
"j. c #8BBB5C",
"k. c #91B750",
"l. c #94BC55",
"z. c #9BBE55",
"x. c #A5B946",
"c. c #A5BE58",
"v. c #81B560",
"b. c #86BE61",
"n. c #89BF65",
"m. c #95B961",
"M. c #88C34F",
"N. c #86C656",
"B. c #88C055",
"V. c #8EC05F",
"C. c #ACC453",
"Z. c #A8C559",
"A. c #B6C757",
"S. c #B7D05B",
"D. c #BCD35F",
"F. c #8BC264",
"G. c #87C369",
"H. c #8EC569",
"J. c #90C867",
"K. c #93CB6B",
"L. c #95C969",
"P. c #98D06F",
"I. c #92C671",
"U. c #95CC71",
"Y. c #9BD275",
"T. c #ACCB62",
"R. c #B2CE60",
"E. c #ACD56F",
"W. c #B3D66D",
"Q. c #BAD668",
"!. c #BBDB68",
"~. c #A0D77A",
"^. c #A4DD7F",
"/. c #BCDD74",
"(. c #C1CC63",
"). c #C4DB6C",
"_. c #CDE677",
"`. c #D5EC7A",
"'. c #B0E887",
"]. c #B3E993",
"[. c #DCF485",
"{. c #C3FA9D",
"}. c #E1F886",
"|. c #E9FF93",
" X c #F1FF94",
/* pixels */
"s -.o.& n :.) b #.G.` n $.) 7 b h.9 8 U 8 ; p.4 ; E m.m.q K ",
"g *.B 7 U.#.% - ` 9 U _ _ U _ n.s l U B 9 L.2 ! K   f -.] z ",
"v B Y B F.@.% n @.9 H.%.m l ] _ 2 Y *.c X z J.] s Y 8 X s U ",
"3 o +.] s 0 N ) ) ) L.9 8 m T m V B ' C 1 T Y.z $ m z K ) -.",
"D 4 S ! Q x h | g.K K K h K O.-.K.C } ;.2 j B ! P & z h.K } ",
"i G ^ M.>.t a.I S r.h x T _ L.X.B s } -.2 ! F.'.J.] ....h.] ",
"6 i.e.M.W R w.z.L.z. .r., T j.z = B s * o.h.;.;.Y ~ ..z -.d.",
"(.[.8.y w 3.Z.Q./.W.E.S h x x ] H.^.C & } -.v d Y h.o.z B F.",
" X`.!.4.: 2.u 6.T.A k.>  .T X _ o.%.h.;.2 c B + j o.+ . s h.",
"}.D.S.5.p x.1.<.3.R D k x x 8 n h.g ] F.f C [ B ] ;.} K U ) ",
"9.0.x.1.7.0.C.F 5 3./ S  .H.-.o.] f P *.B V.+.+.K.P.} l B *.",
"2.C.u.a A.0.D.6.u w.s.I ] %.-.b.B f B ] +.+.c +.J.*.K f *.F.",
"!.|.C.a D.)._.).z./  ._ z l ) I.Y z U d.P.v & o.+.! ~ l ] o.",
"R._.Z.J y.[.[.`.T.L 4 x U ) f $.f & l +.a.e & o...+.Y.*.) g ",
"p H i.i.O.9.Q.T.t.q.q $ #.=.- M f = k I t B P d.! Y h.V.V.C ",
"i H l.M.^ u 3.R R j.K 1 ( #.( V -.+.| ! Z J.F.+.U s s B -.*.",
",.c.t.y @ 6.H G  .O.o.U f M =.V b.-.K k ^ J.~ < B d.U B o...",
"x V._ + &.b.l m *.b.z U n M %.Y.Y V s 7 _ F.& P N.P e z h.~ ",
"e T T m n._ s b l z o.Y l B *.o.7 h.$.f ~ ! e +.h.j s B d v ",
"S h Y _ v.z 8 Y B n Y.Y f B _ n $ %.h.B l v ....Y d s ! C h.",
", 3 X.) 0 l f X.$.{ h.z z B V o.) V -.*.$ v ;.v d C s ! L.U.",
"8 1 { v.v.m B _ ] o.n z n ) *.K.h.B $.d.= j ! v C C d ] h.X.",
"_ T &.I.].U o.$.] f.Y _ z ] H._ z s U Y Y +.v o.*.s B H.V n ",
"q v.H.) ) X.$.o.) b.F._ n _ o.7 B U g f ] F.Y o.) & ) b.n s ",
"m _ ) % 9 n.V 7 2 Y H.8 B m l Y {.~.Y m V ] U B = f Y f n 0 ",
"| O U U # { B # $ B U B _ Y . n B ) o.Y.9 l o.h.{ V V V n ` ",
"_ V v._ { H.*.Y ] f.) s B f ] ] o.B o.U f _ ) ) ` M f M @.N ",
"U *.f.U K.b.H.) = m %.o.Y H.F.z Y 2 ] ) b.&.f # 2 M M n N ( ",
"a.F.! l K.h.) g ) b.$.] H.*.n B B m %.H._ n ` ` n f ( ` ` N ",
"K.] < r B.' V B ] X.s 2 X.7 l X.s ) $.F.7 n ( V 9 N &.@.0 N "
};
