/* XPM */
static char *_ef04ac8a9c045849d1d1cddb7ccbfc89EOSLnFPt9OidQE0[] = {
/* columns rows colors chars-per-pixel */
"30 30 42 1 ",
"  c #417856",
". c #427B57",
"X c #46825B",
"o c #48885D",
"O c #4C935A",
"+ c #4C935C",
"@ c #4C935D",
"# c #4C935E",
"$ c #56985F",
"% c #5B9B5D",
"& c #5D9C5D",
"* c #63A15B",
"= c #69A459",
"- c #6AA559",
"; c #6CA758",
": c #6FA858",
"> c #71AA57",
", c #72AB57",
"< c #77AE55",
"1 c #468D63",
"2 c #478E63",
"3 c #498F62",
"4 c #488F63",
"5 c #498F63",
"6 c #4D8F69",
"7 c #4E8E6E",
"8 c #4A9062",
"9 c #4B9162",
"0 c #4C9161",
"q c #4E9261",
"w c #4E9361",
"e c #4D9362",
"r c #4D9164",
"t c #4D9068",
"y c #83B652",
"u c #86B851",
"i c #89BA50",
"p c #5779C3",
"a c #5878C6",
"s c #5976CD",
"d c #5975D2",
"f c #51868E",
/* pixels */
"6r0fdpaaaaaaaaaaadf+rrrt07pspa",
"00t7###00##00##0###0000w0w0###",
"00r0##############rr0w00r0#+##",
"Xr00rr0r0000r000r00w0rwrw00rrr",
" ww0wrw9wrwr00wrw0e0wrwr0wrw9w",
".wr00wrw0e0ewr0wrerw0e0ewrw9wr",
".r00w0w9erw0wrwrw0wrerw00w9w9w",
".0w0rwrw0wrw0w0wre0e0wrewrwrwr",
"ore0wrwrerw0e0erw0e0erw0wrwrwr",
"w0000e0e0wrerw0wrerw0wre0e0e0e",
"00w0erw0e0e0wrerw0wre0e0erw0er",
"0ere0wrerwrw0e0wre0erwrw0wre0w",
"00wrw0e0wrwre0erw0e0wrwre0erw0",
"0r0wrerw0e0erw0wrerw0e0erw0wre",
"0rerw0wrerw0wrerw0wrerw0wrerw0",
"we0wre0e0wre0e0wre0e0wre0e0wre",
"0eerwrw000wwrww0erw0e0erw0e0er",
"0r0w0w0r090000re0wrerw0wrerw0w",
"wrwr9rw02290w0w0e0e0wrerw0wre0",
"0e0ewwr0$&$0r0rwrwrw0e0wre0erw",
"wr00rw99-u>090wrwrwre0erw0e0wr",
"0w00w099-y>09w9w0e0erw0wrerw0e",
"0r00w9r3-y>990w0erw0wrerw0wrer",
"0w929492-y>r99rw0wre0e0wre0e0w",
"0r0$&%93-y>99900e0erw0e0e0erw0",
"00r:y>23-y>990rwrw0wrerwrw0wre",
"994-y>22-y;0r9wrwrerw0wrwrerw0",
"099-y:92=y>00w000e0wre0e0e0wre",
"00r-y:r2-i>09000erw0erw0erw0er",
"000-y:94*<-000r00wre0wre0wre0w"
};
