/* XPM */
static char *_e693fa051634b839c60a76f45f05fb7JVVfVD1bhCQRLSMv[] = {
/* columns rows colors chars-per-pixel */
"30 30 156 2 ",
"   c #181818",
".  c #403000",
"X  c #580028",
"o  c #245B00",
"O  c #2C6406",
"+  c #2F6609",
"@  c #336607",
"#  c #356C0D",
"$  c #3B750F",
"%  c #366E13",
"&  c #3B6C10",
"*  c #3B7414",
"=  c #3C751A",
"-  c #3F781A",
";  c #785808",
":  c #477802",
">  c #45760D",
",  c #437413",
"<  c #407A16",
"1  c #44771A",
"2  c #437B1D",
"3  c #4C7D1D",
"4  c #537D1A",
"5  c #6D6D09",
"6  c #627816",
"7  c #757513",
"8  c #437B22",
"9  c #4A7F23",
"0  c #457C29",
"q  c #E84870",
"w  c #46801C",
"e  c #518B12",
"r  c #599019",
"t  c #608110",
"y  c #71801B",
"u  c #73881F",
"i  c #64911A",
"p  c #4B8324",
"a  c #4D8A26",
"s  c #4D852A",
"d  c #4F882A",
"f  c #548424",
"g  c #508827",
"h  c #5C8D24",
"j  c #528729",
"k  c #548B2C",
"l  c #5B8C2C",
"z  c #5A922F",
"x  c #558C34",
"c  c #598F32",
"v  c #568E39",
"b  c #588F3B",
"n  c #5C9334",
"m  c #5D943A",
"M  c #668F2F",
"N  c #6C8A28",
"B  c #63932F",
"V  c #70932B",
"C  c #7A952C",
"Z  c #769828",
"A  c #629436",
"S  c #619A35",
"D  c #6E9B37",
"F  c #649B3C",
"G  c #6C9E3E",
"H  c #779A32",
"J  c #5CA029",
"K  c #5BA035",
"L  c #7CA32C",
"P  c #63A239",
"I  c #6AA03E",
"U  c #70A134",
"Y  c #7CA733",
"T  c #1FC809",
"R  c #5E9541",
"E  c #609744",
"W  c #669D42",
"Q  c #6B9F42",
"!  c #679E4A",
"~  c #67A042",
"^  c #6CA445",
"/  c #6DAA42",
"(  c #6DA54A",
")  c #6FA84A",
"_  c #79A744",
"`  c #70A847",
"'  c #70A649",
"]  c #73AA4D",
"[  c #75B348",
"{  c #79B24E",
"}  c #6CA450",
"|  c #77AE51",
" . c #78AF53",
".. c #75AC58",
"X. c #7CB355",
"o. c #77BA50",
"O. c #7CB951",
"+. c #7DB559",
"@. c #7FB85A",
"#. c #78C14E",
"$. c #848E2D",
"%. c #84972E",
"&. c #979437",
"*. c #919838",
"=. c #8FA43D",
"-. c #93B03C",
";. c #A4A23E",
":. c #D09018",
">. c #E8C038",
",. c #8BAE48",
"<. c #97AF4F",
"1. c #89B846",
"2. c #86B14F",
"3. c #9CB545",
"4. c #80B857",
"5. c #82B65B",
"6. c #83BB5B",
"7. c #8BBC5C",
"8. c #99BE57",
"9. c #94BC59",
"0. c #A8AE4C",
"q. c #A5BE58",
"w. c #BBB557",
"e. c #87BE60",
"r. c #88BF62",
"t. c #88C34F",
"y. c #86C656",
"u. c #85C259",
"i. c #8EC05F",
"p. c #98C85B",
"a. c #BAC75D",
"s. c #BCD35F",
"d. c #8BC364",
"f. c #8EC669",
"g. c #90C867",
"h. c #9ACA64",
"j. c #93CB6B",
"k. c #98D06F",
"l. c #9DD275",
"z. c #B2CE60",
"x. c #BCD766",
"c. c #BADB6A",
"v. c #A5D577",
"b. c #C1CC63",
"n. c #D7CE73",
"m. c #D5EC7A",
"M. c #F878C0",
"N. c #B0E887",
"B. c #DCF486",
"V. c #E1F886",
"C. c #F8F880",
"Z. c #ECF091",
"A. c #E9FF93",
"S. c #F1FF94",
"D. c #F8A0E0",
"F. c #F8F8F8",
/* pixels */
"o.{ z z F n d.} = x } 9 f...c f ^ Q 2 Q X.c O z d.^ w F p O ",
"D v.4 @ { / a p v R W W j.9 9 A F l n n ~ m - ~ k.k $ n x A ",
"6 <.N 4 S P m c f ' 7.A D A 9 A ] 4.k.m ] @.- a n P n < k 6.",
"&.*.y V U y.#.4 2.D M 2.4 M Q Q j.) n 8 ) X.- ~ d.N.g.^ ^ ' ",
"w.7 7 3.1.t.J H ,.8.8.9._ 2., G 7.k 2 n p = | 6.4.4.S ^ ' k ",
";.5 b.B.T T T . . . T T T T T T T T T T . . . T T T F 5.] k ",
"a.m.S.m.T T X C.>.. T T T . ; ; . T T T . >.C.X T T k [ # o ",
"t x.V.s.T X M.>.C.. T . . >.>.>.>.. . T . C.>.M.X T ^ 4.' S ",
": L -.-.T X D.>.C.>.. >.C.C.C.C.C.C.>.. >.C.>.D.X T j.k.' g ",
"e i %.q.T X M.>.C.; >.C.C.C.C.C.C.C.C.>.; C.>.M.X T g.X.m j ",
"r Y c.A.T X q q >.C.C.C.C.C.C.C.C.C.C.C.C.>.q q X T X.P F g ",
": Z z.B.T T X X q C.C.C.C.C.C.C.C.C.C.C.C.q X X T T ` ] l.X.",
"=.%.u C T T . :.>.C.C.C.  ; C.C.;   C.C.C.>.:.. T T G F 6.e.",
"Z.0.y C T T . >.C.C.C.C.F.. C.C.. F.C.C.C.C.>.. T T n a p n ",
"n.&.$.q.T   :.C.C.C.C.C..   C.C.  . C.C.C.C.C.:.  T S X.F n ",
"p.> M i.T   >.C.C.C.C.C.C.C.C.C.C.C.C.C.C.C.C.>.  T u.S w k ",
"_ h 3 G T   >.m.C.C.C.C.C.C.. . C.C.C.C.C.C.C.>.  T 6.g p n ",
"Y h.B f T   :.C.C.>.; . . ; F.F.; . . ; >.C.C.:.  T P p g P ",
"I i.> 3     ; >.>.; :.>.>.; F.F.; >.>.:.; >.>.;     a K p F ",
"B i.w 1       :.; :.C.C.C.C.; ; C.C.C.C.:.; :.      P m p ) ",
"9 2.Q G       ; :.>.>.C.C.C.C.C.C.C.C.>.>.:.;       +.2 n f.",
"l & j 5.T       . ; :.>.>.>.>.>.>.>.>.:.; .       T ~ * ~ e.",
"v.j c Q T T         . ; ; ; ; ; ; ; ; .         T T - d m p ",
"A l._ & T T T           . . . . . .           T T T ) m m R ",
"E e.W A +.) ) f.X.F ^ +.W s n p Q ^ ] c ] A s W E W ! v 0 v ",
"f A A X.X.F f.e.f.W - v | ] F f.r.x F 2 ) W 6.+.d % 8 v b x ",
"j G +.r.P a j.6.W s W 7.| ~ f. .c n c n | f.W x ! ~ x s R ! ",
"9 ] j.' - p u.W A n ~ ) p 2 ) p j ' 9 W | d.0 x R v s b ..} ",
"# S { p $ S O.F l.v.) b k k n +.+.p 2  .] k ( 8 b ! R s 0 b ",
"l S P n / y.[ j W X.d.@.s + 2 6.] % m j.) % Q ( v x E } R R "
};
