/* XPM */
static char *e0a60cd6b1fd4ea3fdcc3a9e4bb9d951CiANF41lW0ubZlL4[] = {
/* columns rows colors chars-per-pixel */
"30 30 158 2 ",
"   c #181818",
".  c #403000",
"X  c #580028",
"o  c #2F6609",
"O  c #356502",
"+  c #3B6D00",
"@  c #346B0C",
"#  c #3B750F",
"$  c #366E13",
"%  c #3B6C10",
"&  c #3C7413",
"*  c #3B7618",
"=  c #3F781A",
"-  c #785808",
";  c #487000",
":  c #477802",
">  c #45760D",
",  c #47780D",
"<  c #427111",
"1  c #407A16",
"2  c #417719",
"3  c #437B1D",
"4  c #4E7E1B",
"5  c #537D1A",
"6  c #6D6D09",
"7  c #627B15",
"8  c #6B7E15",
"9  c #757513",
"0  c #437B22",
"q  c #497F23",
"w  c #902048",
"e  c #E84870",
"r  c #4F8015",
"t  c #47811B",
"y  c #4C8A1F",
"u  c #599019",
"i  c #64911A",
"p  c #4B8324",
"a  c #4D8A26",
"s  c #4D842B",
"d  c #4F882A",
"f  c #548324",
"g  c #508827",
"h  c #5C8D24",
"j  c #528629",
"k  c #538A2C",
"l  c #579D24",
"z  c #599A22",
"x  c #57902F",
"c  c #5B932C",
"v  c #4F8632",
"b  c #508733",
"n  c #548C34",
"m  c #598E32",
"M  c #568E39",
"N  c #588F3B",
"B  c #5C9334",
"V  c #5D953A",
"C  c #668F2F",
"Z  c #6C8A28",
"A  c #718320",
"S  c #62932A",
"D  c #67982B",
"F  c #769828",
"G  c #629435",
"H  c #619A35",
"J  c #6E9B37",
"K  c #63973D",
"L  c #649C3C",
"P  c #6B9D3E",
"I  c #779A32",
"U  c #5CA029",
"Y  c #5BA035",
"T  c #7CA32C",
"R  c #66A030",
"E  c #63A239",
"W  c #6AA13E",
"Q  c #7AAA37",
"!  c #73A43C",
"~  c #62B237",
"^  c #1FC809",
"/  c #5F9642",
"(  c #659C42",
")  c #6B9F41",
"_  c #669D49",
"`  c #67A042",
"'  c #6CA344",
"]  c #6EA943",
"[  c #6DA44B",
"{  c #6FA84A",
"}  c #74A444",
"|  c #72AB47",
" . c #7BA943",
".. c #70A74A",
"X. c #73AB4C",
"o. c #75B348",
"O. c #79B04E",
"+. c #77AE51",
"@. c #78AF52",
"#. c #7CB354",
"$. c #7CB951",
"%. c #7FB658",
"&. c #7FB85A",
"*. c #78C14E",
"=. c #84972E",
"-. c #979437",
";. c #959639",
":. c #919838",
">. c #8AAA3D",
",. c #A4A23E",
"<. c #D09018",
"1. c #E8C038",
"2. c #8DA841",
"3. c #8BAE48",
"4. c #97AF4F",
"5. c #80B146",
"6. c #89B846",
"7. c #86B14F",
"8. c #99B449",
"9. c #87B352",
"0. c #82B956",
"q. c #83BB5B",
"w. c #8BBC5C",
"e. c #99B151",
"r. c #99BE57",
"t. c #94BC59",
"y. c #A8AE4C",
"u. c #B0B456",
"i. c #B7BA5A",
"p. c #87BE61",
"a. c #84C356",
"s. c #85C259",
"d. c #95C659",
"f. c #98C85B",
"g. c #BAC75D",
"h. c #8BC262",
"j. c #8ECB63",
"k. c #8FC669",
"l. c #90C366",
"z. c #90C867",
"x. c #9ACA64",
"c. c #94CB6B",
"v. c #9ED377",
"b. c #ABC967",
"n. c #BCD766",
"m. c #A5D577",
"M. c #CCC76B",
"N. c #C1CF70",
"B. c #D7CE73",
"V. c #D6D977",
"C. c #F878C0",
"Z. c #B2E387",
"A. c #B0E887",
"S. c #F8F880",
"D. c #ECF091",
"F. c #F4F49A",
"G. c #F8FE9E",
"H. c #F8A0E0",
/* pixels */
"c c I m.4 O O.' a 0 N ( ( ( c.q q m P n m B ` V 3 E v.k # B ",
"b.e.7 4.Z 5 D E Y m j } 9.K K C f H +.9.c.K ..&.= d B L B = ",
"y.u.;.:.A F Q a.*.r 9.J C 9.5 C P ) x...V 0 | #.3 ( h.A.j.' ",
"V.M.i.9 A 8.6.d.U I 3.r.r.t. .7.< ) w.k 3 B p * +.s.0.0.L W ",
"i.V.,.6 ^ ^ ^ . . . ^ ^ ^ ^ ^ ^ ^ ^ ^ ^ . . . ^ ^ ^ B a E 0.",
"5 8 g.V.^ ^ . S.1.. ^ ^ ^ . - - . ^ ^ ^ . 1.S.. ^ ^ B @ k X.",
"Q >.u n.^ . 1.S.S.. ^ . . 1.1.1.1.. . ^ . S.S.1.. ^ ' B ' 0.",
"l u : T ^ . 1.V.S.<.. 1.S.S.S.S.S.S.1.. <.S.S.1.. ^ O.+.c.c.",
"~ l r i ^ . 1.S.S.S.- S.S.S.S.S.S.S.S.- S.S.S.1.. ^ k #.z.%.",
"o.z u >.^ . 1.1.S.S.S.1.S.S.S.S.S.S.1.S.S.S.1.1.. ^ & | #.E ",
"R + ; F ^ ^ . 1.1.S.S.S.S.S.S.S.S.S.S.S.S.1.1.. ^ ^ & ..| X.",
"Q 2.2.=.^ ^ . . - <.S.S.S.S.S.S.S.S.S.S.<.- . . ^ ^ L 0.E L ",
"N.G.D.y.^ ^ . <.1.1.S.S.S.S.S.S.S.S.S.S.1.1.<.. ^ ^ h.#.H j ",
"F.V.B.-.^   - 1.S.S.S.S.S.S.S.S.S.S.S.S.S.S.1.-   ^ ` 1 B %.",
"d.t.f.> ^   <.S.S.S.S.S.S.S.S.S.S.S.S.S.S.S.S.<.  ^ # H s.H ",
"S D 5.h ^   <.S.S.S.S.S.S.S.S.S.S.S.S.S.S.S.S.<.  ^ t o.0.a ",
", ,  .x.^   <.V.S.S.S.S.S.w e e w S.S.S.S.S.S.<.  ^ ] o.E p ",
"! Q J w.    9 1.S.S.S.S.w C.H.H.C.w S.S.S.S.1.-     &.B a V ",
"0. .S w.    . <.1.S.S.w C.H.H.H.H.C.w S.S.1.<..     ` x E L ",
"G 5 f #.      - <.1.1.w e C.H.H.C.e w 1.1.<.-       x { %.3 ",
"m } j % ^       - <.<.X w e e e e w X <.<.-       ^ V o./ $ ",
"p.Z.m.j ^ ^       . - - X w w w w X - - .       ^ ^ V V = s ",
"m K C m.^ ^ ^         . . X X X X   .         ^ ^ ^ +.&.[ V ",
"@.} } r.^ ^ ^ ^ ^                         ^ ^ ^ ^ ^ / ` ` M ",
"( m j C ^ ^ ^ ^ ^ ^ ^ ^ ^ ^ ^ ^ ^ ^ ^ ^ ^ ^ ^ ^ ^ ^ v $ 0 / ",
"9.n j ( %.h.L g c.q.` d ( p.+.' k.#.n B B m +.k.( n _ [ b v ",
"X.k q X.c.] 1 p s.` V B ) { p 0 { q j ..p ( +.h.0 n / M q / ",
"X.2 @ K O.y # H $.V v.m.{ B n j B #.#.p 2 #...n { 0 M _ / q ",
"q K m H P c ] a.o.d ( +.h.q.p o 0 p.+.$ B c.{ $ ' [ M v _ [ ",
"` l.s.W H | j.a.y V B p B #.[ p p 0 k k p m m j d / v v / _ "
};
