/* XPM */
static char *mur1646216134[] = {
/* columns rows colors chars-per-pixel */
"30 30 236 2 ",
"   c #522D04",
".  c #5E2B08",
"X  c #50300A",
"o  c #5A340B",
"O  c #582E11",
"+  c #583517",
"@  c #5E3C13",
"#  c #662A09",
"$  c #65360E",
"%  c #6D330C",
"&  c #73370B",
"*  c #623312",
"=  c #6B3613",
"-  c #633B15",
";  c #6D3C15",
":  c #66341B",
">  c #633C1A",
",  c #6C3D1B",
"<  c #783917",
"1  c #593825",
"2  c #623E24",
"3  c #713F24",
"4  c #5E4117",
"5  c #66421B",
"6  c #69451D",
"7  c #744619",
"8  c #74421D",
"9  c #7D441A",
"0  c #5F4C22",
"q  c #664124",
"w  c #6B4725",
"e  c #63422D",
"r  c #6B432B",
"t  c #6D4B2C",
"y  c #744424",
"u  c #7B4423",
"i  c #754C25",
"p  c #7C4B23",
"a  c #76462A",
"s  c #744C2A",
"d  c #7B4B2B",
"f  c #6B5328",
"g  c #7C522B",
"h  c #785628",
"j  c #674834",
"k  c #6B4E39",
"l  c #7B4D34",
"z  c #774D38",
"x  c #6B5D33",
"c  c #695639",
"v  c #69533C",
"b  c #7C5233",
"n  c #7C5B34",
"m  c #745739",
"M  c #7B543C",
"N  c #7B5A39",
"B  c #716333",
"V  c #786536",
"C  c #736A36",
"Z  c #7A623A",
"A  c #6E5D43",
"S  c #765542",
"D  c #765B44",
"F  c #7C5C41",
"G  c #7D5C49",
"H  c #7A654E",
"J  c #813A26",
"K  c #834512",
"L  c #8B4513",
"P  c #8C4813",
"I  c #87461A",
"U  c #834C1D",
"Y  c #8C5219",
"T  c #995119",
"R  c #834D24",
"E  c #8B4C24",
"W  c #864529",
"Q  c #844B2A",
"!  c #894C2A",
"~  c #914D27",
"^  c #855325",
"/  c #84532B",
"(  c #8A542B",
")  c #89592C",
"_  c #945324",
"`  c #93542B",
"'  c #965928",
"]  c #9B5A2B",
"[  c #864E32",
"{  c #944D31",
"}  c #825332",
"|  c #895534",
" . c #845C34",
".. c #8C5932",
"X. c #825339",
"o. c #8C5438",
"O. c #8E5C3C",
"+. c #945531",
"@. c #935C34",
"#. c #9A5C34",
"$. c #935D3B",
"%. c #9C5E3D",
"&. c #A55D2B",
"*. c #A05D33",
"=. c #A25C3C",
"-. c #8E602F",
";. c #9D612F",
":. c #84613E",
">. c #896638",
",. c #95633B",
"<. c #9C623B",
"1. c #996638",
"2. c #A86629",
"3. c #B06A2F",
"4. c #A56738",
"5. c #AD663E",
"6. c #B1673B",
"7. c #A9713B",
"8. c #B87639",
"9. c #C2673A",
"0. c #C67B3A",
"q. c #885A46",
"w. c #915F43",
"e. c #9B5D44",
"r. c #836349",
"t. c #866948",
"y. c #8D6C4C",
"u. c #936343",
"i. c #976A48",
"p. c #92734D",
"a. c #997549",
"s. c #886754",
"d. c #996A52",
"f. c #8C7656",
"g. c #947453",
"h. c #9B7551",
"j. c #93745A",
"k. c #99795A",
"l. c #A36642",
"z. c #AE6645",
"x. c #A66A47",
"c. c #AD6B43",
"v. c #A36B4E",
"b. c #AC6B4D",
"n. c #B06D44",
"m. c #B66E49",
"M. c #A8754A",
"N. c #AC724C",
"B. c #B67748",
"V. c #B76A54",
"C. c #A67A58",
"Z. c #B77D55",
"A. c #A67A66",
"S. c #C47749",
"D. c #C47C4B",
"F. c #C06F52",
"G. c #CC7756",
"H. c #C37B55",
"J. c #D27758",
"K. c #C87E61",
"L. c #CE843D",
"P. c #D1853A",
"I. c #8C864C",
"U. c #92884F",
"Y. c #988955",
"T. c #9B905A",
"R. c #AA884B",
"E. c #BC8249",
"W. c #A88457",
"Q. c #A58B54",
"!. c #BB8354",
"~. c #B58857",
"^. c #AD9A5D",
"/. c #B8985B",
"(. c #A88663",
"). c #B38565",
"_. c #B68B63",
"`. c #B88967",
"'. c #A69B63",
"]. c #BD9564",
"[. c #B3946B",
"{. c #BB926D",
"}. c #B99B69",
"|. c #AB9272",
" X c #B79C73",
".X c #B6A56D",
"XX c #BBA476",
"oX c #CB8449",
"OX c #D58343",
"+X c #D98B43",
"@X c #D8884A",
"#X c #DC924F",
"$X c #CC8552",
"%X c #C88657",
"&X c #D68557",
"*X c #C6965C",
"=X c #D89454",
"-X c #E38A54",
";X c #ED9D54",
":X c #E59A59",
">X c #F19C59",
",X c #E7A459",
"<X c #F5A75C",
"1X c #CB8864",
"2X c #D78A66",
"3X c #C8966B",
"4X c #C39C6D",
"5X c #D79665",
"6X c #C99D71",
"7X c #EA8E69",
"8X c #EB9462",
"9X c #EC9E77",
"0X c #C9A76C",
"qX c #D4A16E",
"wX c #D6A879",
"eX c #D7B877",
"rX c #E4A566",
"tX c #ECAB6C",
"yX c #F3AC64",
"uX c #F7A76B",
"iX c #F9B468",
"pX c #E7AA72",
"aX c #FAB978",
"sX c #FFC077",
"dX c #C49289",
"fX c #D4AB84",
"gX c #DAB184",
"hX c #D5B489",
"jX c #E3B58D",
"kX c #D5C08B",
"lX c #E2C586",
"zX c #E8CC8C",
"xX c #FFC584",
"cX c #FFC78B",
"vX c #F6D794",
"bX c #F9DEA7",
/* pixels */
"wX3X{.C.b + r y $ 4.pXaX#XiXaX=X6.T I $.; 6 > , [ e.z.V.H.l.",
"gXfXhXA.M + r i $ ;.pXuX8X=X3._ &.] E u  .i - 6 w.v.b.b.b.u.",
"fX6XfXk.r.+ t b = @.5X=XoX$X_ L _ Y ) ^ d 5   o d o.e.b.v.$.",
"].M.h.y.s.e j M - _ $XoX7.Z.2.] ` 9 ( / 5 5 5 5 d [ $.b.i.a ",
"~.>. .j.j.j 1 r , ` D.&X~.1.U E @.( Q 6 :.a.p.p.i.1.,.l.w.y ",
"~. .:.j.s.j + 2 W #.B.$XW.^ ....9 p ,.M.Q.}.[.W.W.C.,./ l b ",
"a.h n D D j 1 r O.l.6.S.].i -.$.7 o._.jXhXhX.XQ.].6XZ...2 d.",
"g.z q.M s 7 % 9 _ *.b.%Xd.y b d 5 u.eXbXvXeXeX^.kXXX|.e + . ",
"g.S S X.,.-.Y K K E z.K.O.: d X.| C.4X0XsXeXzXlXbX Xy.v + q ",
"h.X.a u.M.M.8.7.] ~ { =.u.a y y / `.4X~.^.eXzXzXhXk.c k q w ",
"h.o.8 ~.~.*XrX5X$Xz.{ ~ v.| d : d `.6X].R.0XeX0XV :.H S m > ",
"C./ U qXpXtXrXqX=X%Xz.{ ! W [ 3 [ ~.6X6X/./.eX*Xo n A.s.m + ",
"i.^ ;.aXsXsXtX=X$XH.=.J = = 3 3 o.C.3XeX0XR.*X.X@ f k.s.k 1 ",
"@.Y E.aXsXsXiX=XD.z.~ # p * = u u.W._.gX/.R.^.Q.6 f r.G S r ",
"Y Y =XyXiXiXyX@X8.c.%.[ ( $ * } (.{.Q..XQ..X^.>.f m s.H s.j ",
"Y 2.8.<XP.;X:XT _ +.+.o.-.  * y.p.p.Y.Y.^.Q.'.T.B A j.f.S m ",
"' L.P.yXP.P.D.P _ ` Q | 7 o   h Z Z Y.I.'.U.Y.I.x x H A F m ",
";.+X+X>X;X@X0.L ` ! p ..h >. .N x 0 H I.'.I.I.C x c A A s y ",
"7.+X+X,XuX-XS.L ` (  .,.~.6X4XY.p.Z x Y.'.I.C x B A A A d g ",
"8.+X+X:XJ.J.S.J Q ) >.>.wXwXgX{. X(.w I..XT.C f m S j G !.!.",
"8.-X@X-X9.S.S.J W ( h n 5X3XjX3X(.y.@ t..X'.V 0 N m j s.gXrX",
"2.0.OX-XJ.J.F.J [ d h >.m.3X1XC.u.w 4 f XX'.V 4 N z l A.cXaX",
"K 2.OX8X7XJ.F.J | b >.Q.Z.1XE Q w.b q.X [.}.n @ b l X.dXcXxX",
"& S.z.G.5XH.! < u 3 q.A.).).X.d.A.l M r r.|.y.5 ) < 5.pXiX,X",
"% ] m.F.Z.n.( ) | d d.).{.C.r X.d.l z 2 F (.y.s / % 6.9X,X,X",
"< % n.6.n.<.R ) O.y w.).[.a.y d X.l r z s.Y.g.N g < 6.2XP.#X",
"( # c.4.N.;.7 / | 8 o.C.,.>.g y , O + N g.k.p.n R { H.$XL.:X",
"d % b.x.c...; ^ ) , ( N.) -.1./ y * O N m y.p.s = l.1X1X:XuX",
". = %.#.<...7 ^ / % 9 #.7.R.R.n.x.O.b b s p.k.g # <.H.2X@XuX",
", u W E ..@.U ( ^ & _ B.B.5X%X!.%XN.$.- b y.h./ $ =.z.J.&X7X"
};
