/* XPM */
static char *_b16596e907648e3829f8be5be27f564itgHUxIdSoNaaOWf[] = {
/* columns rows colors chars-per-pixel */
"30 30 176 2 ",
"   c #302820",
".  c #752D1D",
"X  c #316F0A",
"o  c #366D10",
"O  c #3B7313",
"+  c #3A7C15",
"@  c #3C7419",
"#  c #497507",
"$  c #4B7917",
"%  c #417719",
"&  c #427B1D",
"*  c #657C15",
"=  c #447B22",
"-  c #497F24",
";  c #204870",
":  c #804018",
">  c #885038",
",  c #AF7A2F",
"<  c #BA762C",
"1  c #C85820",
"2  c #E5712E",
"3  c #E97B32",
"4  c #D84048",
"5  c #D07850",
"6  c #399120",
"7  c #48831B",
"8  c #518B12",
"9  c #579119",
"0  c #478022",
"q  c #4B8324",
"w  c #478F25",
"e  c #4E852A",
"r  c #578825",
"t  c #52872A",
"y  c #548B2B",
"u  c #5B8D2C",
"i  c #459425",
"p  c #589A26",
"a  c #5B922C",
"s  c #558D33",
"d  c #598E31",
"f  c #568D39",
"g  c #559630",
"h  c #5C9334",
"j  c #5D9A34",
"k  c #5E963A",
"l  c #5E983B",
"z  c #618B29",
"x  c #708B2E",
"c  c #66942C",
"v  c #669937",
"b  c #6B9C36",
"n  c #61973A",
"m  c #649B3C",
"M  c #779C38",
"N  c #56A738",
"B  c #66A333",
"V  c #63A63B",
"C  c #72A43D",
"Z  c #77AC3A",
"A  c #62B237",
"S  c #659C42",
"D  c #689F42",
"F  c #729144",
"G  c #5CB645",
"H  c #66A042",
"J  c #6BA344",
"K  c #6EA844",
"L  c #6EA548",
"P  c #6EA84A",
"I  c #73A543",
"U  c #74AB4D",
"Y  c #7DAC48",
"T  c #77AE51",
"R  c #78AF52",
"E  c #67BC5C",
"W  c #7CB254",
"Q  c #74BA51",
"!  c #7CB459",
"~  c #71C651",
"^  c #7ED15B",
"/  c #6FCB66",
"(  c #7ACD65",
")  c #6BD46A",
"_  c #77D76B",
"`  c #72DC6E",
"'  c #76DF70",
"]  c #74E372",
"[  c #7DE271",
"{  c #77ED76",
"}  c #7BEB75",
"|  c #7AEF78",
" . c #7BF37A",
".. c #7EFB7E",
"X. c #959639",
"o. c #B2893E",
"O. c #A39738",
"+. c #8AAA3D",
"@. c #A4A23E",
"#. c #FBA50E",
"$. c #E9B414",
"%. c #FBBD14",
"&. c #DD8B33",
"*. c #F89820",
"=. c #E58238",
"-. c #E8963C",
";. c #D9AC27",
":. c #F8A421",
">. c #F8A828",
",. c #F5C119",
"<. c #FCCB1C",
"1. c #FDD62B",
"2. c #EBCB31",
"3. c #899941",
"4. c #BA9943",
"5. c #8DA841",
"6. c #93AD4C",
"7. c #80B146",
"8. c #99B14F",
"9. c #81B654",
"0. c #84BA56",
"q. c #81B759",
"w. c #83BB5C",
"e. c #89BB58",
"r. c #99B151",
"t. c #BDA245",
"y. c #A5B253",
"u. c #A8B557",
"i. c #B2BF5D",
"p. c #B8B858",
"a. c #84BC61",
"s. c #C99C49",
"d. c #DE9240",
"f. c #D3BA4F",
"g. c #D4AE52",
"h. c #CBB753",
"j. c #F0B878",
"k. c #8DC155",
"l. c #94C459",
"z. c #84D35E",
"x. c #B9C95E",
"c. c #8BC363",
"v. c #8CC46A",
"b. c #90C865",
"n. c #93C969",
"m. c #86D86A",
"M. c #99D66C",
"N. c #9AD175",
"B. c #A3CB62",
"V. c #ADCC64",
"C. c #ABCF6F",
"Z. c #B5CC69",
"A. c #ACDF6F",
"S. c #B7D568",
"D. c #B8D568",
"F. c #A2D679",
"G. c #91E06F",
"H. c #97E773",
"J. c #83F47A",
"K. c #81FB7E",
"L. c #A4E571",
"P. c #A2E973",
"I. c #C8C358",
"U. c #C5D55B",
"Y. c #E6DD49",
"T. c #D2CB6F",
"R. c #C1CF70",
"E. c #D6D679",
"W. c #E828A8",
"Q. c #3890C0",
"!. c #F8B0A0",
"~. c #80FF80",
"^. c #B2E387",
"/. c #ECF091",
"(. c #F6F99C",
"). c #88E0F0",
/* pixels */
"+ G ~ G 6 m.<.Y.P.~.    : 1 *.1 :     ~.J.p.&.B.t n h q n.& ",
"6 N N 6 w Q D.L.K.  : : 1 : : : : : 1   ~...w.) S ! s X s c.",
"g V a a a b G.~.  : *.1 : 1 1 : 1 1 : *.  ..` l.h H h @ H M.",
"r u b V.r.* ] J.  *.1 :   : *.1 : *.: *.  ~.| ) l U w.@ e h ",
"O.C.r.u.p.X.M.~.  *.:     : 1 *.  1   1   ~.| ) = P ! = S c.",
"$ 3.Z.E.T.p.| ~.  1   1 *.  1 *.  :   :   ~./ ` h q + P k.! ",
"r x 8.x.T.@.K.~.  :   : 1 : : 1     :     J.3 2 ^.l @ P ! g ",
"w.$ # * * Z.m.G.~.      :           ;   ~.Z.$.$.P k.! & y j ",
"N % p Z +.* I.B.~.~.  !.W.  W.!.    !.W.  L.2.;.e J c.q m J ",
"k.~ A p 9 # s.&.m.  !.W.; W.!.  W.!.; !.  ~.L.c.q n R n c.T ",
"Q ^ ^ A p 8 #.%.g.  !.W.; W.; W.W.;   !.  ~.K.( e h J U T y ",
"w i z.~ 9 9 <.:.R.  !.W.  ;   ; ; 1   !.  ~.~.] y m q.M.a O ",
"g X B B # # $.d.J.  !.W.      :       ; Q.  ~.~.O t W 0.7 O ",
"! a z Z 5.+.s.H.K.  Q.; !.W.W.; ; ; W.!.; >   ~.@ r b 9 a m ",
"7.M 6.R.(./.K.K.  5 j.> ; !.W.W.W.W.!.; > j.5   T I b u b.c.",
"z x R.(.E.E.K.K.  5 j.5 ; W.!.!.!.!.W.  1 5 4   q.v z D b.K ",
"- b k.l.k.l.~.  >.5 5 > Q.; W.W.W.;   ~.    4   k - = D l.+ ",
"u D Y a c 7.  j.5 >.4   ; Q.; ; ; Q.  ~.  j.5   w.R e m m 7 ",
"r b b # 8 Y   j.j.4   W.W.W.W.W.W.!.W.  ~.    ~.W w.h y a K ",
"y v I M C C   5 5 >   W.W.W.!.!.!.W.W.  ~...~.~.k ! R o y ! ",
"n 9.e.e.C c ~.        !.!.W.W.W.W.W.!.  ~.h.u.m.h W q.@ y S ",
"D q.I v $ r ~.| | ~.  ; ; !.!.!.!.!.;   ~.( x.G.e l m m T f ",
"S S d d I u J.4.< c.  ; ; ; ; ; ; ; ;   K.) f.H.m e e L c.l ",
"S - d v.^.F.f., < y.  ; Q.  ; Q.Q.Q.;   K.| B.V.F.S y k J l ",
"a.@ - f m h } }  .|   ; Q.  Q.Q.Q.Q.Q.  K.A.,.<.m U N.q s P ",
"S f f 9.D m ] ( `  .~.      Q.).).Q.Q.  ..u.<.1.h U n e S S ",
"R N.F S d y K.h.t.[ ~.  4   Q.).).Q.  ~. .V.x.h.& L m w.! e ",
"l a.a.q.d t { ' E _ A..     ; Q.Q.Q.  K.i.o.U.[ h W v.D f S ",
"S 0 T P y - m.[ F -.%.Y.H.  ; ; ; ;   S.,.<.s. .m R c.- s l ",
"P o P U % o ] _ ..=.1.1.P.  4 4 4   K.D.<.1.h.K.R U s L = f "
};
