/* XPM */
static char *png_face1646216753[] = {
/* columns rows colors chars-per-pixel */
"30 30 175 2 ",
"   c #2D251E",
".  c #34271F",
"X  c #302820",
"o  c #6B341E",
"O  c #275701",
"+  c #316F0A",
"@  c #376E11",
"#  c #397214",
"$  c #3A7C15",
"%  c #3D7519",
"&  c #455806",
"*  c #4E610F",
"=  c #4A760D",
"-  c #457714",
";  c #41741A",
":  c #437B1D",
">  c #4D7918",
",  c #467D20",
"<  c #497B24",
"1  c #5A7738",
"2  c #204870",
"3  c #842D1B",
"4  c #91301A",
"5  c #804018",
"6  c #AD6916",
"7  c #885038",
"8  c #C7561F",
"9  c #C85820",
"0  c #DA722E",
"q  c #EC6F2C",
"w  c #F06D22",
"e  c #E5722F",
"r  c #EA7D35",
"t  c #D84048",
"y  c #D07850",
"u  c #44831E",
"i  c #4B8325",
"p  c #4E852A",
"a  c #4B8C29",
"s  c #538524",
"d  c #588A26",
"f  c #508429",
"g  c #538B2B",
"h  c #5C8D2C",
"j  c #459425",
"k  c #59972A",
"l  c #578731",
"z  c #558D33",
"x  c #5A8F32",
"c  c #559630",
"v  c #5C9335",
"b  c #5D9A34",
"n  c #5D953C",
"m  c #5E9B39",
"M  c #618B29",
"N  c #708B2E",
"B  c #67922A",
"V  c #639634",
"C  c #699C36",
"Z  c #61963B",
"A  c #639A3C",
"S  c #6A9D39",
"D  c #779C38",
"F  c #56A738",
"G  c #55B23F",
"H  c #66A333",
"J  c #63A63B",
"K  c #71A23D",
"L  c #77AC3A",
"P  c #62B237",
"I  c #5E9843",
"U  c #6C9345",
"Y  c #669C41",
"T  c #689C41",
"R  c #5CB645",
"E  c #6BA345",
"W  c #6EA448",
"Q  c #6EA84A",
"!  c #72A541",
"~  c #74AB4D",
"^  c #79A84C",
"/  c #77B74A",
"(  c #77AE51",
")  c #78AF52",
"_  c #6EB056",
"`  c #7BB254",
"'  c #7CB358",
"]  c #71C651",
"[  c #7DCA5D",
"{  c #68C762",
"}  c #74CA64",
"|  c #7DCB65",
" . c #6BD168",
".. c #6EDA6C",
"X. c #7BD56A",
"o. c #70DE6F",
"O. c #74E371",
"+. c #7BE975",
"@. c #78ED77",
"#. c #7BF279",
"$. c #7EFB7E",
"%. c #AEA13C",
"&. c #CE8A12",
"*. c #FA9916",
"=. c #FBBD12",
"-. c #E19925",
";. c #F89820",
":. c #E88938",
">. c #D3B031",
",. c #F8A828",
"<. c #F8BB2D",
"1. c #F7C81C",
"2. c #FBCA1B",
"3. c #F3C62B",
"4. c #F4D233",
"5. c #808E40",
"6. c #9F9947",
"7. c #AC9844",
"8. c #B19943",
"9. c #8AAA49",
"0. c #93AD4C",
"q. c #99B14F",
"w. c #96AD52",
"e. c #81B654",
"r. c #89B655",
"t. c #81B65A",
"y. c #83BB5D",
"u. c #8CBD5B",
"i. c #9CB35B",
"p. c #A2A94C",
"a. c #B6A44D",
"s. c #A5B857",
"d. c #B2BB58",
"f. c #86BC61",
"g. c #E09D46",
"h. c #D7B94F",
"j. c #CAB858",
"k. c #D3B254",
"l. c #F0B878",
"z. c #8DC155",
"x. c #8EC15E",
"c. c #95C659",
"v. c #84D35E",
"b. c #8BC463",
"n. c #87CB63",
"m. c #93C463",
"M. c #95CB69",
"N. c #82DE6E",
"B. c #9DD569",
"V. c #98D86A",
"C. c #97CE73",
"Z. c #9DD477",
"A. c #ABCC6B",
"S. c #BBCD69",
"D. c #ADD768",
"F. c #BBDD67",
"G. c #A2DA7D",
"H. c #9CED76",
"J. c #82FD7F",
"K. c #A2E26D",
"L. c #A5E672",
"P. c #D7CF45",
"I. c #D5D657",
"U. c #C1CF70",
"Y. c #C3D074",
"T. c #D6DB7D",
"R. c #C9E061",
"E. c #E828A8",
"W. c #3890C0",
"Q. c #F8B0A0",
"!. c #80FF80",
"~. c #C3FA9D",
"^. c #F4F49A",
"/. c #88E0F0",
"(. c #F8F8F8",
/* pixels */
"% ~ E v f | 0 :.n.j.g.K.J.X 9 X X X !.X U w *.3.; U ^ f % i.",
"f Z ~ A v s.&.1.k.. X X . . 5 9 ;.5 X 9 X X.a.7.f.f.l O < * ",
"I $ Z ` G.t.-.<.S.  8 ;.5 5 5 5 9 ;.5 X 9   x.K.t.< < Z < & ",
"F $ R ] G } 1 u.N.. 5 8 ;.9 5 5 5 5 5 5 3 X $.!.f g Z v i M.",
"m u F F j O.%.D.o 8 5 5 9 9 9 5 ;.5 5 9 X 5 X L.: T ' c + g ",
"u c J c k $.@.#.. 8 ;.5 5 5 5 5 9 ;.5 9 X 9 3 4.v v Y m ; T ",
"c d h D A.J.u.n.!.X 9 ;.9 5 X 5 5 ;.5 9 X 9 4 2.C.A ~ t.; a ",
"v K A.s.p. .} x.#.X 5 5 5 5 5 X 5 9 5 X 5 5 . j.v : W ` , A ",
"C > 9.S.T.F.B.d.  8 ;.;.;.9 9 5 X o . . 5 . $.V.; N i % ~ y.",
"> d B q.d.J.#.#.. 5 9 ;.9 5 5 X E.E.2 E.. J...6.f.!.m # Q ` ",
"# y.= = s J._ R.!.X 5 5 5 X E.2 Q.Q.2 Q.E.X #.n.) ` y.' : c ",
"c b $ B L c.O.$.!.X X X X X X X X X X E.7 X $.$.f.l E b.i Z ",
"a | / G k s.$.  X Q.E.X (.X y y X (.X Q.2 l.X !.T i n ` V b.",
"a / [ v.P #.  W.E.E.X X (.X l.l.X (.X E.2 l.y X n f v W ~ ~ ",
"c j j v./ J.X W.X X E.X y l.l.l.l.y X 2 2 t ,.X A g Z e.B.v ",
"A k $ H H X y 7 W.2 Q.E.2 y l.l.y 2 E.2 y l.y X p @ d ` e.u ",
"f e.h M D X l.y X X X Q.E.2 X X 2 Q.E.X y l.l.X p ; d S s v ",
"- ^ D 0.U.. ,.t t X 2 2 Q.Q.E.E.Q.E.2 X 7 y 7 X ' ( ! C d M.",
"s M N Y.^.X y y l.7 X 2 2 E.Q.Q.E.2 X !.X X X !.f.t.V d K M.",
"g i C z.c.!.X l.l.y X E.2 2 2 2 2 Q.E.X !.!.!.!.A n i , A m.",
"Z g K / B $.X l.y 7 X 2 E.E.Q.Q.2 Q.E.E.X +.r e : y.) p Y C ",
"T d C C = $.!.X X X Q.2 2 2 X W.W.2 Q.E.X D.=.1.# ` y.v g c ",
"l g S ! S +.#.!.X Q.2 2 2 2 W././.W.2 Q.X H.P.4.Y v ' ( @ g ",
"p A ` u.r.` r.!.X 2 2 W.W.2 W././.W.2 X !.#.f.V.y.v ` y.% g ",
"z T t.^ V w.5.o.!.X 2 W.W.X W.W.W.W.2 X $.{ *.K.p p n A A ( ",
"I I A x x  .6 p.!.X 2 W.W.X 2 W.W.2 X !.$.N.V.$.n m f p W b.",
"I Y p x f.} >. .$.. 2 2 2 X 2 ,.t 2 X !.$.x.0.J.~.G.A v n E ",
"I f.% < l w.7.N.@.J.X t t X 2 ,.t 2 X N.r q u.J.x A Q Z.i p ",
"z I z I ) >.8.{ h.K.!.X X X t X X X !.j.=.2.0 I.~ x ~ Z p Y ",
"W _ C.W A 3.i.o.} o...o.!.X t ,.t X !.a.&.4.:.K.A : W Y y.' "
};
