/* XPM */
static char *png_left1646216752[] = {
/* columns rows colors chars-per-pixel */
"30 30 173 2 ",
"   c #302820",
".  c #255C00",
"X  c #33650A",
"o  c #35790C",
"O  c #386F12",
"+  c #377712",
"@  c #3D741B",
"#  c #4D730C",
"$  c #447513",
"%  c #43741B",
"&  c #437A1D",
"*  c #4D7918",
"=  c #457D23",
"-  c #4A7E23",
";  c #407D2D",
":  c #204870",
">  c #804018",
",  c #885038",
"<  c #C3701C",
"1  c #DE781B",
"2  c #E3741B",
"3  c #C85820",
"4  c #D84048",
"5  c #D07850",
"6  c #43851E",
"7  c #4B8225",
"8  c #4D852A",
"9  c #4B8C29",
"0  c #518525",
"q  c #578926",
"w  c #50872B",
"e  c #538A2C",
"r  c #5B8D2B",
"t  c #499727",
"y  c #59982B",
"u  c #4B8636",
"i  c #578731",
"p  c #558D32",
"a  c #5A8E32",
"s  c #528D39",
"d  c #4F9036",
"f  c #569737",
"g  c #5C9335",
"h  c #5D9A34",
"j  c #5C953C",
"k  c #5E9B39",
"l  c #63852D",
"z  c #618B29",
"x  c #708B2E",
"c  c #6D912F",
"v  c #608333",
"b  c #669A36",
"n  c #61973C",
"m  c #639A3D",
"M  c #6A9C3D",
"N  c #759B3A",
"B  c #54B02F",
"V  c #56A738",
"C  c #4AB83D",
"Z  c #66A636",
"A  c #68A53D",
"S  c #61AD39",
"D  c #78A93B",
"F  c #52C63F",
"G  c #4AD239",
"H  c #41D83B",
"J  c #60C33A",
"K  c #5B9743",
"L  c #5A9A45",
"P  c #5C9A44",
"I  c #6D9340",
"U  c #649C43",
"Y  c #699D41",
"T  c #639E4A",
"R  c #749043",
"E  c #5CB645",
"W  c #53BB44",
"Q  c #65A244",
"!  c #6CA245",
"~  c #66A24C",
"^  c #6CA34A",
"/  c #6EA94C",
"(  c #72A541",
")  c #73A44C",
"_  c #73AA4D",
"`  c #7BA948",
"'  c #69A352",
"]  c #6EAA54",
"[  c #76A350",
"{  c #75AD53",
"}  c #79AF52",
"|  c #6CB355",
" . c #7BB254",
".. c #76B855",
"X. c #75B359",
"o. c #7CB459",
"O. c #7DBB63",
"+. c #59CA46",
"@. c #4AD844",
"#. c #4BDC46",
"$. c #4DDE49",
"%. c #58D34E",
"&. c #50DF4D",
"*. c #5CCE51",
"=. c #5ADA55",
"-. c #67CC48",
";. c #7CC041",
":. c #69CD55",
">. c #7DCA5D",
",. c #7ED15B",
"<. c #52E14E",
"1. c #55E252",
"2. c #59E456",
"3. c #5CE559",
"4. c #61E55E",
"5. c #66EC64",
"6. c #9D8529",
"7. c #BC9524",
"8. c #8DA232",
"9. c #94A332",
"0. c #99B538",
"q. c #A3A22E",
"w. c #BFA135",
"e. c #A8BC3F",
"r. c #B4B238",
"t. c #FCBD12",
"y. c #DB8224",
"u. c #CC962E",
"i. c #F89820",
"p. c #D9A32F",
"a. c #F8A828",
"s. c #F9BA29",
"d. c #87C634",
"f. c #FCCB1C",
"g. c #ECCD23",
"h. c #F5CE27",
"j. c #8AAA49",
"k. c #93AD4C",
"l. c #97B84B",
"z. c #87AA59",
"x. c #85B457",
"c. c #81B55A",
"v. c #84BB5D",
"b. c #89BC5B",
"n. c #ADB041",
"m. c #A2BA5A",
"M. c #8EB562",
"N. c #86BD62",
"B. c #8ABE62",
"V. c #F0B878",
"C. c #86CD4E",
"Z. c #92C447",
"A. c #8DC155",
"S. c #84D35E",
"D. c #8CC265",
"F. c #8DC369",
"G. c #85C96A",
"H. c #91C467",
"J. c #96CB6C",
"K. c #95CD72",
"L. c #9DD377",
"P. c #A6C86B",
"I. c #BACB6D",
"U. c #A0C371",
"Y. c #A4DD7F",
"T. c #C3D074",
"R. c #E828A8",
"E. c #3890C0",
"W. c #F8B0A0",
"Q. c #80FF80",
"!. c #C3FA9D",
"~. c #88E0F0",
"^. c #F8F8F8",
/* pixels */
"o.v.7 @ _ Q g <.#.$.  > > 3 3     #.  #.<.F e.- n ^ X % Y [ ",
" . .a 7 n _ m <.#.      > > > i.3   >   <.y.t.Y N.F.U N.B.i ",
"D.) n n & P  .$.  > 3 i.i.3 > > i.3 > 3   2 f.} T = w c.- - ",
"l l z V o E :.#.  > > > > 3 3 > i.3 > i.  J r.A n Y B.w w k ",
"l x.b.h 6 V V   > 3 i.3 >   3   3 >   3   @.@.r 0 Y Q & M  .",
"M B._ 6 y V h   i.i.i.i.3 >     >     >   B 1 - v Y g g g Q ",
"a { k y 0 z N   3 3 >       R.W.: R.W.  H 7.t.0 b `  .J.b _ ",
"G.Q O g ( P.m.  3 >   : R.W.: R.W.: R.  H 0.g.A ! J.! j & _ ",
"| G...m * j.I.1.  >           : R.W.:   H G d.$ Y A.w & g 7 ",
"j >.o.& q c l.1.<.    5   ^.5   : R.W.R.    H q r r ! F.Y.k ",
"@ ~ X.@ v.$ # 1.<.  5 V.  ^.5 ,   : R.W.W.R.  ` Y X Q _ { v.",
"[ a 8 e Z + y <.<.  , V.V.5 5               3.z e & e D.w ! ",
"i M.) e >.;.S <.  5   V.5 ,   : R.R.:   2.3.3.` H.c._ ! 7 b ",
"R U.c.8 | >.,.<.  V.,     : : R.R.R.R.W.  2.2.! } c.D.g 9 g ",
"z.I I f 9 t S.<.  V.5   R.R.R.R.R.W.W.:   3.3.e e P K.j e n ",
"z.% - A y o Z &.$.      R.W.W.W.W.: : V.5   2.j U 8 { 8 O w ",
"[ n = 0 o.z z C %.#.#.#.    : : :   5 V.V.,   / X.; p 8 @ q ",
"o.N.q % ` N k.< -.9.C #.#.  E.~.E.:   5 V.5   U ] P j o. .! ",
"X./ n 0 l x T.6.D 8.D F #.#.  E.E.  4 4 5 5   u d X.j N.c.b ",
"O.K p w 7 Z A.W J 9.q.F G #.  :   , 5 4 4   Q.e a } L.m g 7 ",
"u T { n q A j.%.r.w.V $.#.  : E.  V.V.5   R.  w g  ._ - v. .",
"u ' o.U q M b w.f.f.u.#.#.  E.E.  5 V.5   R.  w g Y e O } v.",
"' T T p q M D Z.f.h.u.&.  : E.~.E.      R.R.  e n g _ M g o.",
"' T s 8 m } b.+.l.s.-.1.  E.E.~.E.E.: W.W.R.  e Y  .H.v.g  .",
"u ' U u Y c.) l.%.W 1.<.  E.~.~.E.E.:       Q.e ^ F.Q q 8 n ",
"; ' T j U U a *.2.2.%.1.  E.~.~.E.E.  :   4   p Q _ = g n 8 ",
"u K U K K w g =.C.W =.1.  : E.~.E.:   E.  4   g g w m !.L.M ",
"K K s K B.@ - =.*.S C.%.1.  : E.E.:   :   4   ! m . e a m _ ",
"L L P d U s g 5.p.n.-.=.2.    : : :     4 4   g 8 Q ! _ g _ ",
"K s ~ ~ o.K.^ 3.4.4.:.3.  4 a.a.4 4   5.    5.m F.B.e n & / "
};
