/* XPM */
static char *d524bf25190e49008393b8abb4b35d78Bl8k09qdGCPno3f7[] = {
/* columns rows colors chars-per-pixel */
"30 30 175 2 ",
"   c #35281F",
".  c #302820",
"X  c #1C5400",
"o  c #245B00",
"O  c #336607",
"+  c #356A0D",
"@  c #347008",
"#  c #3C7413",
"$  c #3D751A",
"%  c #435906",
"&  c #486708",
"*  c #477505",
"=  c #4C6E18",
"-  c #437B1B",
";  c #487A1A",
":  c #527C19",
">  c #687310",
",  c #757A16",
"<  c #487D23",
"1  c #597824",
"2  c #647D29",
"3  c #1F456C",
"4  c #20476F",
"5  c #204870",
"6  c #804018",
"7  c #885038",
"8  c #C85820",
"9  c #D84048",
"0  c #D07850",
"q  c #3F861E",
"w  c #47801D",
"e  c #538C14",
"r  c #608110",
"t  c #728B1C",
"y  c #77881C",
"u  c #64911A",
"i  c #4B8424",
"p  c #4D8A26",
"a  c #4D842A",
"s  c #4D8A29",
"d  c #558725",
"f  c #52872A",
"g  c #548B2C",
"h  c #5B8D2B",
"j  c #59912F",
"k  c #558C34",
"l  c #598D37",
"z  c #5B9334",
"x  c #5D953A",
"c  c #589E38",
"v  c #718320",
"b  c #63932F",
"n  c #77952B",
"m  c #7F9E2C",
"M  c #718F33",
"N  c #619A35",
"B  c #60963D",
"V  c #649C3C",
"C  c #6D9D39",
"Z  c #54A32A",
"A  c #5AA339",
"S  c #4DBD3E",
"D  c #54B73F",
"F  c #78B12E",
"G  c #66A13C",
"H  c #75A737",
"J  c #72AE33",
"K  c #7CBA3D",
"L  c #3EC736",
"P  c #3FD139",
"I  c #4DC53E",
"U  c #49C93A",
"Y  c #54C13E",
"T  c #44D53D",
"R  c #7EC73B",
"E  c #669D43",
"W  c #6A9D41",
"Q  c #679E4A",
"!  c #5ABF4B",
"~  c #6CA444",
"^  c #6DA549",
"/  c #76AA45",
"(  c #71A649",
")  c #74AC4C",
"_  c #79B24F",
"`  c #79AE55",
"'  c #7CB353",
"]  c #77BA50",
"[  c #7EB559",
"{  c #4CCC43",
"}  c #52CB45",
"|  c #55CA4A",
" . c #58C849",
".. c #4BD443",
"X. c #4AD445",
"o. c #4ADB45",
"O. c #4DDC4A",
"+. c #53D34B",
"@. c #52DD4D",
"#. c #58CE51",
"$. c #5AD352",
"%. c #56DC51",
"&. c #5ADB53",
"*. c #78C14E",
"=. c #52E14F",
"-. c #59E256",
";. c #59E357",
":. c #66EC64",
">. c #848E2D",
",. c #86982C",
"<. c #8E8D35",
"1. c #949638",
"2. c #B09C2E",
"3. c #86A93A",
"4. c #97AA38",
"5. c #87B23A",
"6. c #93B53B",
"7. c #A4A539",
"8. c #A0B033",
"9. c #F89820",
"0. c #F8A828",
"q. c #88C239",
"w. c #97AF4F",
"e. c #85B747",
"r. c #98B446",
"t. c #95AA57",
"y. c #80B857",
"u. c #81B65C",
"i. c #8FB65D",
"p. c #83BB5B",
"a. c #8BBC5B",
"s. c #94B757",
"d. c #A7BB47",
"f. c #A7B652",
"g. c #87BE60",
"h. c #86BA64",
"j. c #95B961",
"k. c #C4B653",
"l. c #EDB677",
"z. c #F0B878",
"x. c #81CA44",
"c. c #84C749",
"v. c #8BC257",
"b. c #ABC555",
"n. c #B7C85B",
"m. c #BAD25D",
"M. c #8BC363",
"N. c #8EC56A",
"B. c #90C867",
"V. c #9ACA64",
"C. c #92CB6A",
"Z. c #86D568",
"A. c #98D06F",
"S. c #95C972",
"D. c #9DD275",
"F. c #BBD967",
"G. c #A7D475",
"H. c #B6D27D",
"J. c #D7CE73",
"K. c #D3DF73",
"L. c #D2EB7B",
"P. c #D52C95",
"I. c #E227A4",
"U. c #E828A8",
"Y. c #378EBD",
"T. c #3890C0",
"R. c #F5AD9E",
"E. c #F8B0A0",
"W. c #80FF80",
"Q. c #B2E98D",
"!. c #E1F886",
"~. c #EBF892",
"^. c #F1FF94",
"/. c #88E0F0",
"(. c #F8F8F8",
/* pixels */
"( B ~ p.N.~ a D =.o.3.. X.. . 8 8 6 6   S U c.& t.1 2 H.i.= ",
"z - i [ ( # g @.{ o.  6 . 8 9.6 6 6     . J 2.% t.1 % M j.i.",
"Z.q s ' l < A...X.. 8 6 8 9.6 6 8 9.9.8 >   4.B.- C b X a [ ",
"] _ j z E z M...X.. 9.> 8 9.6 8 8 6 6 6 6   { g N.~ < W i O ",
"C G.; O _ ~ p q.{ . 8 . 6 8 . 8 . 6 8 9.8 6 . ~ A.g # j g z ",
"> w.v : N G Z T U . 6 . . 6 . . > 8 0 9.9.9.. s z V b - g p.",
"<.1.v M J v.] q.F P . E.U.4 R.U.. . . 6 8 8 . V M.Q.B.( ^ ( ",
"k., y r.e.c.Z U P Z . U.4 E.U.4 R.U.3 . 6 8 . v.p.y.N V ^ g ",
"2.> n.!.6.e e L P L . 5 E.U.5 . . . . . >   @.' z i G p.( g ",
"n.K.^.L.m.3.O U . . U.E.U.5 . 0 (.. 0 . . 2.+.h N + p ) + o ",
"r K.L.F.m.4.t   U.E.E.U.5 . 7 0 (.. z.0 . 1.{ ~ ~ z ~ [ ^ x ",
"* m 4.6.b.,.4.$.. . . . . . . 0 0 z.z.7 . #.] v._ _ B.A.( g ",
"e u m b.r.y n.;.#.4.. 3 I.U.5 . 7 0 z.. 0 . 4._ h ' B.[ x f ",
"e F F.~.n.n n.&._ . R.P.P.U.U.5 3 . . 7 z.  K z # ( _ G V p ",
"* n m.L.b.m r.A ;.. 5 E.E.U.U.U.U.U.. 0 z.. @.w # ( / ) D.` ",
"3.m t n r.e.5.;.. 0 z.5 5 E.E.E.E.U.. . . Y x.z N [ ~ N p.M.",
"~.f.y n s.v.J . 7 z.l.0 . 3 5 5 . . o.{ { ..=.B.v.' N g i z ",
"J.<.>.f.e.d * . 0 R.0 . 5 Y./.Y.. 8.o.{ } +.+.B.G - N [ N z ",
"f.* h g.W + ` . 0 0 9 9 . Y.Y.. o.T T O.I 7.=.M.# N p.N - g ",
"e.h : W W k N.W.. 9 9 0 7 . 5 . 5.R R Z x.7.| G ; ) p.p p z ",
"/ V.h f B W u.. U.. 0 l.l.. T.5 . I Y S } 5.;.g k ~ V p s E ",
"C a.= ; ( E < . U.. 0 l.0 . T.T.. O.K =.J +.O.g ' j p N p E ",
"b a.1 - Q u.h.. U.U.. . . T./.T.4 . Y D @.+.| f G j V c s ~ ",
"d _ W W ` S.Q.. U.E.E.5 T.T./.T.Y.. H }  .c.] _ z ) [ $ c N.",
"h + f u.N.Q B W.. . . 5 T.T././.Y.. @.+.| r.#.M.B ) W # Q [ ",
"G.a h W B $ a . 9 . 5 . T.T././.T..  .c.%.#.#.~ N z $ a B a ",
"l D.( O x B + . 9 . T.. 5 T./.T.4 . @.$.;.d.7.g ) [ ^ x B B ",
"C h.W x [ ^ ^ . 9 . 5 . 5 T.T.5 . =.;.;.&.&.#.E E E ~ l < k ",
"f x B ' ' B C.. 9 9 . . 5 5 5 . . &.! @.#.8  .[ < $ < l l k ",
"f W y.g.V f A.:.. . :.. 9 9 0.0.9 . ;.$.d.#.V k Q Q k a x Q "
};
