/* XPM */
static char *ecce7cb344924411d38d349db86832b3UvNfLE6Nb881HZdr[] = {
/* columns rows colors chars-per-pixel */
"18 31 148 2 ",
"   c None",
".  c #3F080C",
"X  c #271111",
"o  c #2D1414",
"O  c #311616",
"+  c #301919",
"@  c #391B1B",
"#  c #362A2B",
"$  c #2E3939",
"%  c #383334",
"&  c #373D3D",
"*  c #7D161E",
"=  c #462222",
"-  c #4D2525",
";  c #452E2E",
":  c #4E2828",
">  c #552B2B",
",  c #5B2E2E",
"<  c #473232",
"1  c #5F3030",
"2  c #6C272B",
"3  c #623131",
"4  c #6A3636",
"5  c #6F3838",
"6  c #7F353A",
"7  c #753B3B",
"8  c #7B3E3E",
"9  c #001A55",
"0  c #001F63",
"q  c #0F4242",
"w  c #1E5F5F",
"e  c #175353",
"r  c #234A4A",
"t  c #3D4444",
"y  c #255353",
"u  c #275A5A",
"i  c #2D5B5B",
"p  c #2A565B",
"a  c #315B5B",
"s  c #3D5C5C",
"d  c #2B5963",
"f  c #1E6060",
"g  c #2A6767",
"h  c #236A6A",
"j  c #2F6868",
"k  c #366C6C",
"l  c #396E6E",
"z  c #396464",
"x  c #31667D",
"c  c #327373",
"v  c #3B7575",
"b  c #3D7A7A",
"n  c #367C7C",
"m  c #424C4D",
"M  c #7F4040",
"N  c #417777",
"B  c #417E7E",
"V  c #557E7E",
"C  c #646F6F",
"Z  c #626262",
"A  c gray47",
"S  c #717E7C",
"D  c #B70500",
"F  c #962A18",
"G  c #A11C28",
"H  c #B21F2D",
"J  c #982221",
"K  c #913137",
"L  c #A92B25",
"P  c #B7202E",
"I  c #B92C26",
"U  c #B73223",
"Y  c #C83628",
"T  c #C12231",
"R  c #B24534",
"E  c #B73F4B",
"W  c #834242",
"Q  c #8B4646",
"!  c #8E4848",
"~  c #924A4A",
"^  c #9A4F4F",
"/  c #9C5050",
"(  c #935A5A",
")  c #A04F57",
"_  c #DE4B5A",
"`  c #C95763",
"'  c #CD5C62",
"]  c #D15764",
"[  c #07389A",
"{  c #0C3B95",
"}  c #0A3DA2",
"|  c #2E558C",
" . c #3A7482",
".. c #37679D",
"X. c #39699C",
"o. c #0C40AA",
"O. c #1244A4",
"+. c #1750C3",
"@. c #1F5CD8",
"#. c #2B62D8",
"$. c #296AF1",
"%. c #3C8686",
"&. c #448484",
"*. c #478B8B",
"=. c #498D8D",
"-. c #4B9393",
";. c #4F9898",
":. c #529D9D",
">. c #5D9393",
",. c #798D8D",
"<. c #669797",
"1. c #56A4A4",
"2. c #5AABAB",
"3. c #818181",
"4. c #8D8D8D",
"5. c #9D8D8A",
"6. c #948C8C",
"7. c #839595",
"8. c gray57",
"9. c #9A9A9A",
"0. c #9C9795",
"q. c #A49897",
"w. c #A09D9D",
"e. c #B09D96",
"r. c #8AADAD",
"t. c #97AEAE",
"y. c #9DAAAA",
"u. c #A0ACAC",
"i. c #B5ACAC",
"p. c #AABCBC",
"a. c #B2B2B2",
"s. c #BFB1B1",
"d. c #B0B9B9",
"f. c #B9B9B9",
"g. c #DFC8BD",
"h. c #B8C0C0",
"j. c #C6C6C6",
"k. c gray79",
"l. c #CCD2D2",
"z. c #D0D0D0",
"x. c #D8D8D8",
"c. c #E0D9CB",
"v. c #DCE0E0",
"b. c #EBEBEB",
"n. c gray89",
"m. c #F9F6EF",
"M. c gray98",
"N. c gray96",
/* pixels */
"                                    ",
"        X       8 7 8 7 7           ",
"        1 7 W W W W W 8 8 W -       ",
"    = 7 7 7 M M W W W M W Q 8 3     ",
"    4 ! 8 ! Q ! ! ~ / / ~ Q 8 4 O   ",
"    > 7 4 3 4 8 7 4 4 4 , , 3 7 -   ",
"    3 3 , + < = : ; > - < ; - 4 o   ",
"    3 3 : s =.v &.;.N ;.B &.v - @   ",
"    1 > & a :.1.2.2.2.1.1.=.=.@     ",
"    , > % l &.:.2.2.2.1.2.1.&.$     ",
"    @ > r B h.n.t.1.1.-.:.p.>.v k   ",
"  j v t v 7.M.N.b.=.;.;.r.N.d.v *.  ",
"  =.b a v ,.M.n.b.&.;.;.<.b.y.b &.  ",
"  &.v l k B u.l.7.=.=.=.=.b B l p   ",
"  v B b k B &.B *.S 0.5.C B g       ",
"    y # m a i l / c.m.g.e.          ",
"      * U G H I F ) ] _             ",
"    . 2 ! J T Y L K ] `             ",
"    % z =.K H R c                   ",
"    l v =.:.V l n %.c c k y         ",
"    | X.X. .=.1.v g c n c u         ",
"    } #.} +.x -.-.v r y u           ",
"    } $.  9 O. .v i                 ",
"    [ @.  0 { d r                   ",
"    d =.    e w                     ",
"    &.:.    h h                     ",
"    &.&.  q g                       ",
"  i.s.3.Z 0.6.                      ",
"q.D i.N.M.5.9.z.j.                  ",
"( ( j.x.n.k.9.a.f.8.                ",
"4.a.a.a.f.a.A 8.9.3.                "
};
