/* XPM */
static char *c274cb2766a544b9fc417bec637b8bf7kyRVj3npWGhpjvRe[] = {
/* columns rows colors chars-per-pixel */
"30 30 225 2 ",
"   c #560B19",
".  c #561719",
"X  c #5B151C",
"o  c #5C1C1D",
"O  c #631E1D",
"+  c #6B1F1D",
"@  c #7D1E1C",
"#  c #5C241B",
"$  c #69241D",
"%  c #77231E",
"&  c #7B221C",
"*  c #5A0724",
"=  c #5C1423",
"-  c #5C1C22",
";  c #57162E",
":  c #5E1D2B",
">  c #621D23",
",  c #671B25",
"<  c #731D23",
"1  c #5D2223",
"2  c #5C2229",
"3  c #632223",
"4  c #6B2223",
"5  c #66272C",
"6  c #7B2523",
"7  c #762529",
"8  c #6E491C",
"9  c #754818",
"0  c #7A5917",
"q  c #6E462A",
"w  c #931F1C",
"e  c #A61D1B",
"r  c #8A241D",
"t  c #88271D",
"y  c #95251D",
"u  c #97271C",
"i  c #9B251D",
"p  c #A3241C",
"a  c #AD251E",
"s  c #A6281E",
"d  c #B3241D",
"f  c #BC241D",
"g  c #B5281E",
"h  c #B43518",
"j  c #961F26",
"k  c #892624",
"l  c #8E2A28",
"z  c #942522",
"x  c #9C2523",
"c  c #942A23",
"v  c #9D2C25",
"b  c #982929",
"n  c #9A3C23",
"m  c #983933",
"M  c #A32821",
"N  c #BB2923",
"B  c #AA3527",
"V  c #C61E17",
"C  c #DB1F17",
"Z  c #C2241C",
"A  c #CC241C",
"S  c #C12B1E",
"D  c #CF2818",
"F  c #D52915",
"G  c #D5241D",
"H  c #DB241C",
"J  c #D52B1B",
"K  c #DB2A1C",
"L  c #CE311E",
"P  c #D9371A",
"I  c #E02B1A",
"U  c #E1361B",
"Y  c #C32522",
"T  c #CB2821",
"R  c #D42523",
"E  c #DB2223",
"W  c #DD2923",
"Q  c #D82728",
"!  c #CF332C",
"~  c #D63624",
"^  c #E12A27",
"/  c #E23727",
"(  c #92501C",
")  c #995D1A",
"_  c #AB4E16",
"`  c #9A671B",
"'  c #907019",
"]  c #A5691E",
"[  c #B36C1C",
"{  c #AB7318",
"}  c #90522F",
"|  c #B04C3B",
" . c #8F6B25",
".. c #AE6A23",
"X. c #D94619",
"o. c #DB551B",
"O. c #D75B18",
"+. c #E44C1C",
"@. c #E3571D",
"#. c #D7671A",
"$. c #E5681B",
"%. c #E4761E",
"&. c #E87A1B",
"*. c #F07F1F",
"=. c #DB4725",
"-. c #DC5D21",
";. c #E25324",
":. c #E55A26",
">. c #D86621",
",. c #D97B25",
"<. c #D86534",
"1. c #E56A25",
"2. c #E57727",
"3. c #E27A3E",
"4. c #D93F43",
"5. c #8F5154",
"6. c #A44C47",
"7. c #AE6161",
"8. c #D14B42",
"9. c #E3564A",
"0. c #D07269",
"q. c #CB7376",
"w. c #DE7777",
"e. c #E47674",
"r. c #B78816",
"t. c #BD981C",
"y. c #BCAA15",
"u. c #B59723",
"i. c #A89331",
"p. c #CA8A1A",
"a. c #DE8C17",
"s. c #C89719",
"d. c #E78C0E",
"f. c #E49C0F",
"g. c #E78919",
"h. c #EC8C1C",
"j. c #F1891B",
"k. c #E89717",
"l. c #E7921B",
"z. c #EC9B1B",
"x. c #F09D1B",
"c. c #C9A61A",
"v. c #CAB718",
"b. c #D6BC16",
"n. c #EAAE09",
"m. c #F1BA0F",
"M. c #ECAA11",
"N. c #EAA51C",
"B. c #E7A81A",
"V. c #F2AC1A",
"C. c #E7B417",
"Z. c #EDBA1A",
"A. c #F2B31A",
"S. c #F2BD1C",
"D. c #D6892B",
"F. c #C69B27",
"G. c #CA992C",
"H. c #E48A21",
"J. c #EC8B23",
"K. c #EB8528",
"L. c #F28926",
"P. c #E99724",
"I. c #F29825",
"U. c #E78A33",
"Y. c #EA9B38",
"T. c #D7AF20",
"R. c #DBB224",
"E. c #E6A826",
"W. c #F1A722",
"Q. c #E9B52A",
"!. c #EFB738",
"~. c #DDC60D",
"^. c #CFC31A",
"/. c #D8C614",
"(. c #EAC40C",
"). c #F4C10F",
"_. c #F0D30F",
"`. c #EDC313",
"'. c #E9C815",
"]. c #EEC91C",
"[. c #F2C315",
"{. c #F2C31A",
"}. c #F5C71A",
"|. c #ECD412",
" X c #EADA15",
".X c #F4DA16",
"XX c #F4E70D",
"oX c #F4E015",
"OX c #DBC922",
"+X c #DBC23D",
"@X c #E5C42E",
"#X c #E6D725",
"$X c #EDE221",
"%X c #EBA85E",
"&X c #E58B67",
"*X c #D2AD77",
"=X c #DFCB7C",
"-X c #E9D973",
";X c #EEE165",
":X c #BF8C80",
">X c #CC9986",
",X c #CDB5AE",
"<X c #D2BDAD",
"1X c #CDADB4",
"2X c #DEAFB4",
"3X c #C8B7B5",
"4X c #D3B9B5",
"5X c #D5B8BA",
"6X c #E4ACB2",
"7X c #E5B9B5",
"8X c #ECBAB5",
"9X c #D9C5A9",
"0X c #CBC3B9",
"qX c #DBC2BE",
"wX c #EBDCAA",
"eX c #E4C3B9",
"rX c #EEC4BB",
"tX c #F0CEB5",
"yX c #EBD5B4",
"uX c #F4D9B7",
"iX c #F3E3B8",
"pX c #F7F4B0",
"aX c #D3C3C3",
"sX c #F4CEC0",
"dX c #F2F0D0",
/* pixels */
"iX<X3X3XaXqXtXrXyX3X3X3X3X3X5X4X4X7X8XtXuXuX7X8X7X8X8XuXuXdX",
"9Xi.# 5.7.8.Y.!.G.7 o o . # t y y Z =.l.V.`.C Z f C o.g.n.pX",
">X#Xq 4 m ;.%X@Xr.$ o > o o % z y T U J.M.'.e r u S +.h.A.pX",
":XG.@Xy.D.%XW..Xt.# - o o - % y i A I K.).b.w x y d X.I.[.iX",
"-XF.| | +X X).B.@X9 : = # < k y d J 1.z.b.v.> t z B Z.`.Q.yX",
"&XR.c.F.E.o./ R =.f.c.r.'  .] ..#.I.{./.) /.* O r [ f./ ~ 6X",
"w.2.@XR.o.Q J W H T j.P.(.].A.B.M.M.Z.`.[.$X0 ; t p.I E H 6X",
"w.$.A.b.o.Q R N R W K.P.|.P.o.X.+.;.@.$.D.W._./.{ ,.J H A 2X",
"e.$.A.b._ f d y a W &.z..X#.E E E E R J K F ;.B.`.B.N f p 2X",
"w.&.m.OX` t z y s T 2.l. X( i p x p i p Z E H K.l.p.b i y 1X",
"0.1.z. X9 $ t x u Y $.z.~.5 3 < t k x z M N H %.I.[ < r i 3X",
"0.1.k.^.$ O , c c g X.h./.. 5 1 o O & x z M ! U K.] o 3 w ,X",
"q.o.I.v.= - o % z N H &.'.3 - 3 1 o 3 z c b T E -.' # 3 r ,X",
"q.P k.y., o o O b d P j.|.0 - 1 3 - % x b _ #.f.[.r.o > % ,X",
"q.=.x.b.. o - 4 z d o.h.oXu.. - = , n ..c.].}.V.z.u.o o 6 ,X",
"0.1.j.#X .> - 7 c f g.z. XoXv.y.v.'.#Xb..XO.P W P p.= 2 t 1X",
"w.L.z.'./. .. 6 i >.N.[.H.#.2.a.g.P.A.b.E.E H K Q D.% 2 l 1X",
"%X{.oXc.s. Xu.] h g.[.:.Q F G K I =.U.E.].^ H Z Y X.s.8 ) 9X",
">X/.oXS.m.A.].].`.].l.J Q ^ R S Q X.L.H..Xb a i M R k.S.|.9X",
">X'.+.X.~ X.$.H.[.b.>.a i d M v N X.g.h.|.@ l v w N #.l.~.,X",
"*Xl.F ^ ^ H I *.l..X#.k k c l i p K g.j.'.X , l b p =.j.(.,X",
"*X>.Q f s Z H 2.h.].p.4 1 , @ y i Z &.j.v.= - $ l v E %.(.<X",
"=X_ i x u s G &.L.B.c.4 2 1 : k u T ;.z.v.X - $ & M R 1.`.4X",
"-XO % z x y Z @.l.K.`., : - 2 6 y Y X.E.^.= - o % x A %.`.9X",
"-X. o $ j z N ~ H.L.|.( $ '  .{ [ O.k.b.b.8 - o & x X.J.}.9X",
"-X* - 1 6 e B 4.2.P..XS.B.g.k.d.l.W.m.E.u.v.$ : t i 1.J.`.9X",
"-XX X , 4 m 6.9.U.M.f.G E E ^ E H G o.H.{.XX/.0 k h J.g..X9X",
"-X> . 1 7 6.8.3.K.'.! f Z G F D A I E 1.M.S.&.E.c.g.C.}.XXeX",
";X  . # } 6.<.K.m.r.y x w e a y p V H &.x.n.H H :.d.n.N.m.wX",
"dX0X5X0XaX7XyXuXiX4XaXaX0X5XqXaXaXeXsXtXuXiXrXrXrXrXsXuXiXdX"
};
